<svg width="33" height="33" viewBox="0 0 33 33" fill="none" xmlns="http://www.w3.org/2000/svg">
<g clip-path="url(#clip0_121_241)">
<path d="M3.80176 5.46558H4.35352C4.6582 5.46558 4.90527 5.71265 4.90527 6.01733V8.22412C4.90527 8.52881 4.6582 8.77588 4.35352 8.77588H3.80176C3.49707 8.77588 3.25 8.52881 3.25 8.22412V6.01733C3.25 5.71265 3.49707 5.46558 3.80176 5.46558Z" fill="#717275"/>
<path d="M3.80176 9.87939H4.35352C4.6582 9.87939 4.90527 10.1262 4.90527 10.4312V12.6379C4.90527 12.9426 4.6582 13.1897 4.35352 13.1897H3.80176C3.49707 13.1897 3.25 12.9426 3.25 12.6379V10.4312C3.25 10.1262 3.49707 9.87939 3.80176 9.87939Z" fill="#717275"/>
<path d="M6.5603 0.5H20.9053C22.124 0.5 23.1121 1.48804 23.1121 2.70679V30.2932C23.1121 31.512 22.124 32.5 20.9053 32.5H6.5603C5.34155 32.5 4.35352 31.512 4.35352 30.2932V2.70679C4.35352 1.48804 5.34155 0.5 6.5603 0.5Z" fill="#717275"/>
<path d="M4.35352 4.91382H23.1121V28.0862H4.35352V4.91382Z" fill="#A0C7E7"/>
<path d="M23.1121 4.91382V15.7937C13.1479 15.22 7.44873 19.2256 4.35352 22.9111V4.91382H23.1121Z" fill="#BDDCF3"/>
<path d="M18.6985 14.2933C18.6978 14.6644 18.6573 15.0342 18.5772 15.3965C18.1426 17.2532 16.6932 18.7027 14.8365 19.1373C14.1097 19.2991 13.3563 19.2991 12.6297 19.1373C10.773 18.7027 9.32355 17.2532 8.88898 15.3965C8.72711 14.67 8.72711 13.9166 8.88898 13.1898C9.18903 11.9109 9.97711 10.8004 11.0848 10.0945H11.0904C11.5626 9.79254 12.0833 9.57404 12.6297 9.44904C13.3563 9.28717 14.1097 9.28717 14.8365 9.44904C15.3829 9.57404 15.9036 9.79254 16.3758 10.0945H16.3814C17.4891 10.8004 18.2772 11.9109 18.5772 13.1898C18.6573 13.5521 18.6978 13.9219 18.6985 14.2933Z" fill="#ED634C"/>
<path d="M27.5264 18.7068C27.2217 18.7068 26.9746 18.46 26.9746 18.1553C26.9746 17.8503 27.2217 17.6035 27.5264 17.6035C27.8311 17.6035 28.0781 17.3564 28.0781 17.0518V7.12061C28.0781 6.81592 28.3252 6.56885 28.6299 6.56885C28.9346 6.56885 29.1816 6.81592 29.1816 7.12061V17.0518C29.1816 17.9658 28.4404 18.7068 27.5264 18.7068Z" fill="#717275"/>
<path d="M29.7322 6.01733C29.7322 6.62671 29.2383 7.12061 28.6289 7.12061C28.0193 7.12061 27.5254 6.62671 27.5254 6.01733C27.5254 5.40771 28.0193 4.91382 28.6289 4.91382C29.2383 4.91382 29.7322 5.40771 29.7322 6.01733Z" fill="#CD4F38"/>
<path d="M14.2849 2.70679C14.2849 3.01172 14.0378 3.25854 13.7332 3.25854C13.4285 3.25854 13.1816 3.01172 13.1816 2.70679C13.1816 2.4021 13.4285 2.15527 13.7332 2.15527C14.0378 2.15527 14.2849 2.4021 14.2849 2.70679Z" fill="#445C71"/>
<path d="M15.9392 30.2932C15.9392 31.512 14.9512 32.5 13.7322 32.5C12.5134 32.5 11.5254 31.512 11.5254 30.2932C11.5254 29.0742 12.5134 28.0862 13.7322 28.0862C14.9512 28.0862 15.9392 29.0742 15.9392 30.2932Z" fill="#445C71"/>
<path d="M17.9646 8.50562L16.3811 10.0945H16.3755C15.9033 9.79248 15.3826 9.57397 14.8362 9.44897V7.20337C15.968 7.38159 17.0405 7.82812 17.9646 8.50562Z" fill="#CD4F38"/>
<path d="M19.52 10.0613L17.9312 11.6504C17.54 11.02 17.0095 10.4878 16.3809 10.0945L17.9644 8.50562C18.5623 8.93799 19.0876 9.46338 19.52 10.0613Z" fill="#EBECED"/>
<path d="M20.8228 13.1897H18.5771C18.4521 12.6433 18.2336 12.1226 17.9316 11.6504L19.5205 10.0613C20.2002 10.9841 20.647 12.0571 20.8228 13.1897Z" fill="#CD4F38"/>
<path d="M20.9045 14.2932C20.905 14.6626 20.8772 15.0315 20.8218 15.3965H18.5762C18.738 14.6699 18.738 13.9165 18.5762 13.1897H20.8218C20.8772 13.5549 20.905 13.9238 20.9045 14.2932Z" fill="#EBECED"/>
<path d="M20.8228 15.3965C20.647 16.5291 20.2002 17.6021 19.5205 18.5249L17.9316 16.9358C18.2336 16.4636 18.4521 15.9429 18.5771 15.3965H20.8228Z" fill="#CD4F38"/>
<path d="M19.5198 18.5249C19.0874 19.1228 18.562 19.6482 17.9641 20.0808L16.375 18.4917C17.0054 18.0984 17.5376 17.5664 17.9309 16.9358L19.5198 18.5249Z" fill="#EBECED"/>
<path d="M17.9646 20.0808C17.0417 20.7603 15.9685 21.207 14.8362 21.3828V19.1372C15.3826 19.0122 15.9033 18.7937 16.3755 18.4917L17.9646 20.0808Z" fill="#CD4F38"/>
<path d="M14.8357 19.1372V21.3828C14.1042 21.4932 13.3604 21.4932 12.6289 21.3828V19.1372C13.3555 19.2991 14.1089 19.2991 14.8357 19.1372Z" fill="#EBECED"/>
<path d="M12.6284 19.1372V21.3828C11.4966 21.2046 10.4241 20.7581 9.5 20.0808L11.0891 18.4917C11.5613 18.7937 12.082 19.0122 12.6284 19.1372Z" fill="#CD4F38"/>
<path d="M11.0903 18.4917L9.50122 20.0808C8.90332 19.6482 8.37793 19.1228 7.94531 18.5249L9.53442 16.9358C9.92749 17.5664 10.4597 18.0984 11.0903 18.4917Z" fill="#EBECED"/>
<path d="M9.53369 16.9358L7.94458 18.5249C7.26514 17.6021 6.81836 16.5291 6.64258 15.3965H8.88818C9.01318 15.9429 9.23169 16.4636 9.53369 16.9358Z" fill="#CD4F38"/>
<path d="M8.76758 14.2932C8.76807 14.6643 8.80884 15.0342 8.88892 15.3965H6.64331C6.53296 14.665 6.53296 13.9211 6.64331 13.1897H8.88892C8.80884 13.552 8.76807 13.9219 8.76758 14.2932Z" fill="#EBECED"/>
<path d="M9.53369 11.6504C9.23169 12.1226 9.01318 12.6433 8.88818 13.1897H6.64258C6.81836 12.0571 7.26514 10.9841 7.94458 10.0613L9.53369 11.6504Z" fill="#CD4F38"/>
<path d="M11.0847 10.0945C10.4558 10.4878 9.92554 11.02 9.53442 11.6504L7.94531 10.0613C8.37793 9.46338 8.90332 8.93799 9.50122 8.50562L11.0847 10.0945Z" fill="#EBECED"/>
<path d="M12.6284 7.20337V9.44897C12.082 9.57397 11.5613 9.79248 11.0891 10.0945H11.0835L9.5 8.50562C10.4241 7.82812 11.4966 7.38159 12.6284 7.20337Z" fill="#CD4F38"/>
<path d="M11.5254 16.5C11.3518 16.5 11.1882 16.4182 11.084 16.2793C10.6524 15.7073 10.4199 15.0098 10.4219 14.2932C10.4219 13.9883 10.669 13.7415 10.9736 13.7415C11.2783 13.7415 11.5254 13.9883 11.5254 14.2932C11.5234 14.771 11.6785 15.2361 11.9668 15.6172C12.0921 15.7844 12.1123 16.0081 12.0188 16.1951C11.9253 16.3818 11.7344 16.5 11.5254 16.5Z" fill="#FE9189"/>
<path d="M15.9392 13.1897C15.7656 13.1897 15.6021 13.108 15.4978 12.969C14.7654 11.9957 13.3838 11.7981 12.4082 12.5276C12.2505 12.6458 12.0418 12.6709 11.8604 12.5936C11.6792 12.5162 11.553 12.3479 11.5293 12.1521C11.5059 11.9566 11.5884 11.7632 11.7461 11.6448C13.2095 10.5508 15.282 10.847 16.3806 12.3069C16.5059 12.4742 16.5261 12.6978 16.4326 12.8848C16.3391 13.0716 16.1482 13.1897 15.9392 13.1897Z" fill="#FE9189"/>
<path d="M14.8357 7.20337V9.44897C14.1089 9.28711 13.3555 9.28711 12.6289 9.44897V7.20337C13.3604 7.09302 14.1042 7.09302 14.8357 7.20337Z" fill="#EBECED"/>
<path d="M23.1113 14.2932H24.2148C24.8242 14.2932 25.3181 14.7871 25.3181 15.3965V20.9138C25.3181 21.5232 24.8242 22.0173 24.2148 22.0173H23.1113V14.2932Z" fill="#717275"/>
<path d="M25.3184 15.9482H25.8701C26.7844 15.9482 27.5254 16.6892 27.5254 17.6035V18.7068C27.5254 19.6211 26.7844 20.3621 25.8701 20.3621H25.3184V15.9482Z" fill="#B4B4B3"/>
<path d="M10.9746 23.6724H16.4919C17.1013 23.6724 17.5952 24.1665 17.5952 24.7759C17.5952 25.3853 17.1013 25.8794 16.4919 25.8794H10.9746C10.3652 25.8794 9.87109 25.3853 9.87109 24.7759C9.87109 24.1665 10.3652 23.6724 10.9746 23.6724Z" fill="#23B972"/>
</g>
<defs>
<clipPath id="clip0_121_241">
<rect width="32" height="32" fill="white" transform="translate(0.5 0.5)"/>
</clipPath>
</defs>
</svg>
