<svg width="33" height="33" viewBox="0 0 33 33" fill="none" xmlns="http://www.w3.org/2000/svg">
<g clip-path="url(#clip0_121_276)">
<path d="M8.77732 17.6024H2.7086C1.48993 17.6024 0.501953 16.6145 0.501953 15.3955V13.1889C0.501953 11.97 1.48993 10.982 2.7086 10.982H30.2933C31.512 10.982 32.5 11.97 32.5 13.1889V15.3955C32.5 16.6145 31.512 17.6024 30.2933 17.6024H8.77732Z" fill="#B4B4B3"/>
<path d="M9.32943 15.3956H3.26071C2.95604 15.3956 2.70898 15.1488 2.70898 14.8439V13.7407C2.70898 13.436 2.95604 13.189 3.26071 13.189H29.742C30.0467 13.189 30.2937 13.436 30.2937 13.7407V14.8439C30.2937 15.1488 30.0467 15.3956 29.742 15.3956H9.32943Z" fill="#445C71"/>
<path d="M22.0174 17.0507V18.1542C22.0174 18.4589 21.7704 18.7057 21.4657 18.7057H19.8105V16.499H21.4657C21.7704 16.499 22.0174 16.7461 22.0174 17.0507Z" fill="#F4CD1E"/>
<path d="M17.6035 16.499H19.8102V18.7057H17.6035V16.499Z" fill="#F6AB27"/>
<path d="M15.3984 16.499H17.6053V18.7057H15.3984V16.499Z" fill="#F4CD1E"/>
<path d="M13.1914 16.499H15.3981V18.7057H13.1914V16.499Z" fill="#F6AB27"/>
<path d="M13.1913 16.499V18.7057H11.5361C11.2314 18.7057 10.9844 18.4589 10.9844 18.1542V17.0507C10.9844 16.7461 11.2314 16.499 11.5361 16.499H13.1913Z" fill="#F4CD1E"/>
<path d="M18.1334 31.9849L16.55 32.476C16.4097 32.5188 16.2578 32.5039 16.1284 32.4345C15.999 32.3652 15.9026 32.247 15.8606 32.1062L15.535 31.0525C15.4485 30.762 15.6104 30.4554 15.8992 30.3629L17.4826 29.8776L18.1334 31.9849Z" fill="#F4CD1E"/>
<path d="M20.2408 31.3395L18.1333 31.9849L17.4824 29.8776L19.5897 29.2266L20.2408 31.3395Z" fill="#F6AB27"/>
<path d="M22.3485 30.6886L20.2409 31.3394L19.5898 29.2265L21.703 28.5811L22.3485 30.6886Z" fill="#F4CD1E"/>
<path d="M24.4615 30.0375L22.3486 30.6886L21.7031 28.581L23.8104 27.9299L24.4615 30.0375Z" fill="#F6AB27"/>
<path d="M26.0394 29.5519L24.4616 30.0375L23.8105 27.9299L25.3939 27.4446C25.6849 27.3548 25.9935 27.5178 26.0836 27.8086L26.409 28.8625C26.452 29.0029 26.4371 29.1547 26.3675 29.2841C26.2982 29.4135 26.18 29.5099 26.0394 29.5519Z" fill="#F4CD1E"/>
<path d="M21.8413 21.5524L21.2622 23.6819L19.6678 23.2461C19.5265 23.2076 19.4064 23.1143 19.3338 22.9869C19.2616 22.8597 19.2425 22.7088 19.2816 22.5675L19.5685 21.5028C19.607 21.3615 19.7003 21.2414 19.8277 21.1691C19.9549 21.0966 20.1058 21.0778 20.2469 21.1166L21.8413 21.5524Z" fill="#F4CD1E"/>
<path d="M21.262 23.6817L21.8413 21.5522L23.9708 22.1315L23.3915 24.261L21.262 23.6817Z" fill="#F6AB27"/>
<path d="M26.1014 22.711V22.7166L25.5221 24.8405L23.3926 24.2612L23.9719 22.1317L26.1014 22.711Z" fill="#F4CD1E"/>
<path d="M25.5214 24.8398L26.1007 22.7157L28.2297 23.2962L27.6504 25.4204L25.5214 24.8398Z" fill="#F6AB27"/>
<path d="M30.2157 24.4048L29.9232 25.4695C29.8863 25.6118 29.7933 25.7331 29.6656 25.8059C29.5377 25.8786 29.3859 25.8967 29.2448 25.8557L27.6504 25.4199L28.2297 23.296L29.8295 23.7318C30.1209 23.8123 30.2933 24.1126 30.2157 24.4048Z" fill="#F4CD1E"/>
<path d="M13.7425 26.4296C13.7425 29.7809 11.0254 32.498 7.67382 32.498C4.32222 32.498 1.60535 29.7809 1.60535 26.4296C1.60535 23.078 4.32222 20.3608 7.67382 20.3608C11.0254 20.3608 13.7425 23.078 13.7425 26.4296Z" fill="#5DC382"/>
<path d="M7.67382 20.3608V32.498C4.32222 32.498 1.60535 29.7809 1.60535 26.4296C1.60535 23.078 4.32222 20.3608 7.67382 20.3608Z" fill="#23B972"/>
<path d="M7.67449 30.0363C6.73631 29.9926 5.8372 29.6489 5.10921 29.0554C4.87754 28.8574 4.85044 28.5093 5.04843 28.2776C5.24666 28.0462 5.59478 28.0188 5.82646 28.2168C6.35401 28.6404 6.99948 28.8906 7.67449 28.9341C8.66759 28.9341 9.32966 28.4492 9.32966 28.1282C9.32966 27.3045 8.8541 27.1583 7.59563 26.9767C6.52856 26.8216 4.91611 26.589 4.91611 24.7319C4.91611 23.4371 6.34229 22.5675 7.67449 22.5675C9.46759 22.5675 10.1521 23.1617 10.2713 23.2808C10.4873 23.4935 10.4915 23.8406 10.2805 24.0581C10.0696 24.2757 9.7227 24.2825 9.50348 24.0733C9.47198 24.0479 8.98422 23.671 7.67449 23.671C6.92478 23.671 6.01956 24.1438 6.01956 24.7319C6.01956 25.5556 6.49512 25.7018 7.75334 25.8832C8.82041 26.0373 10.4331 26.2694 10.4331 28.127C10.4331 29.198 9.21931 30.0363 7.67449 30.0363Z" fill="#5D9069"/>
<path d="M7.67477 31.3946C7.3701 31.3946 7.12305 31.1478 7.12305 30.8429V29.7397C7.12305 29.435 7.3701 29.188 7.67477 29.188C7.97944 29.188 8.22649 29.435 8.22649 29.7397V30.8429C8.22649 31.1478 7.97944 31.3946 7.67477 31.3946Z" fill="#5D9069"/>
<path d="M7.67477 23.6709C7.3701 23.6709 7.12305 23.4238 7.12305 23.1192V22.016C7.12305 21.7113 7.3701 21.4642 7.67477 21.4642C7.97944 21.4642 8.22649 21.7113 8.22649 22.016V23.1192C8.22649 23.4238 7.97944 23.6709 7.67477 23.6709Z" fill="#5D9069"/>
<path d="M16.5014 0.5L18.087 2.92368L20.915 3.66069L19.0667 5.89615L19.2291 8.77537L16.5014 7.7332L13.7738 8.77537L13.9362 5.89615L12.0879 3.66069L14.9158 2.92368L16.5014 0.5Z" fill="#F4CD1E"/>
<path d="M23.1211 2.70663C22.865 2.70712 22.6421 2.53135 22.5833 2.2821C22.5242 2.0326 22.6448 1.77553 22.874 1.66128L23.9775 1.10956C24.1537 1.02143 24.3639 1.03412 24.5282 1.143C24.6928 1.25164 24.7867 1.43986 24.775 1.63663C24.7631 1.83339 24.6471 2.00892 24.4706 2.09705L23.3671 2.64877C23.2907 2.68686 23.2065 2.70663 23.1211 2.70663Z" fill="#F6DB6D"/>
<path d="M10.4323 2.70663C10.3468 2.70663 10.2626 2.68686 10.1862 2.64877L9.08275 2.09705C8.90625 2.00892 8.79029 1.83339 8.77832 1.63663C8.76661 1.43986 8.86059 1.25164 9.02514 1.143C9.18943 1.03412 9.39962 1.02143 9.57588 1.10956L10.6793 1.66128C10.9086 1.77553 11.0292 2.0326 10.9701 2.2821C10.9112 2.53135 10.6884 2.70712 10.4323 2.70663Z" fill="#F6DB6D"/>
<path d="M24.2233 6.56842C24.1378 6.56842 24.0536 6.54864 23.9772 6.51056L22.8737 5.95883C22.601 5.82261 22.4904 5.49133 22.6267 5.21864C22.7629 4.94596 23.0944 4.83512 23.3671 4.97135L24.4705 5.52307C24.6998 5.63732 24.8201 5.89438 24.7613 6.14388C24.7022 6.39313 24.4796 6.56915 24.2233 6.56842Z" fill="#F6DB6D"/>
<path d="M9.32826 6.56845C9.07193 6.56918 8.84928 6.39316 8.79021 6.14391C8.73137 5.89442 8.85173 5.63735 9.08096 5.5231L10.1844 4.97138C10.3609 4.88325 10.5709 4.89594 10.7354 5.00482C10.8999 5.11346 10.9939 5.30168 10.982 5.49844C10.97 5.69521 10.854 5.87074 10.6775 5.95886L9.57434 6.51059C9.49793 6.54867 9.4137 6.56845 9.32826 6.56845Z" fill="#F6DB6D"/>
</g>
<defs>
<clipPath id="clip0_121_276">
<rect width="32" height="32" fill="white" transform="translate(0.5 0.5)"/>
</clipPath>
</defs>
</svg>
