<svg width="33" height="33" viewBox="0 0 33 33" fill="none" xmlns="http://www.w3.org/2000/svg">
<g clip-path="url(#clip0_121_369)">
<path d="M10.7544 0.5C4.6853 3.25854 2.47852 1.05176 2.47852 1.05176C2.47852 2.73291 5.9978 7.93237 7.67578 10.3157C8.22192 9.19263 9.10522 8.26855 10.2026 7.67236C10.6968 7.36963 11.1194 6.96338 11.4412 6.4812C11.0588 4.15015 10.7544 0.5 10.7544 0.5Z" fill="#5DC382"/>
<path d="M4.29907 5.17212C2.72168 4.4834 1.375 3.8103 1.375 3.8103C1.42334 4.75195 1.60913 5.6814 1.92676 6.56885C2.31299 7.73364 5.43237 9.98975 7.24756 11.2249C7.30835 11.1404 7.37378 11.0596 7.44385 10.9827C7.50269 10.7544 7.58032 10.5312 7.67578 10.3157C6.79785 9.06885 5.41919 7.05273 4.29907 5.17212Z" fill="#23B972"/>
<path d="M3.83594 8.68921C4.22681 9.97998 4.51099 11.3005 4.68555 12.6379C5.30127 12.6443 5.91504 12.7065 6.51953 12.824C6.65894 12.2493 6.90576 11.7065 7.24731 11.2239C6.27612 10.5635 4.93506 9.6106 3.83594 8.68921Z" fill="#5D9069"/>
<path d="M26.7534 14.8447C25.3372 14.6174 23.8911 14.6536 22.488 14.9514L22.3396 15.3965C21.1216 16.4233 19.9868 17.5447 18.9453 18.75C21.8667 19.2227 27.3342 23.6724 27.8567 23.6724H29.512C29.512 22.0173 31.7188 15.3965 31.7188 15.3965C30.0505 15.3601 28.3889 15.1755 26.7534 14.8447Z" fill="#5DC382"/>
<path d="M27.7866 23.6492C27.0071 23.406 21.7827 19.209 18.9463 18.75L18.9717 18.7229C18.6118 19.1448 18.1721 19.4915 17.678 19.7429L22.8923 28.0862C22.8923 28.0862 27.8577 26.9827 28.9612 25.3276L27.7866 23.6492Z" fill="#23B972"/>
<path d="M17.8164 19.6834C17.7669 19.7056 17.7227 19.7276 17.6785 19.7442L17.9158 20.1194L19.4991 22.6516L19.0303 23.1206L16.2715 25.3277L16.1116 25.6531C15.8338 26.2022 15.5997 26.7722 15.4109 27.3579C15.2278 27.9024 15.0027 28.4319 14.7378 28.9414L13.2647 31.8877C13.0784 32.2625 12.6958 32.4998 12.2771 32.5H3.87431C3.47709 32.499 3.11113 32.2849 2.91581 31.939C2.7205 31.593 2.72636 31.1687 2.93095 30.8284L6.77079 24.4229C8.23783 21.9578 8.31108 18.9055 6.96391 16.3731C6.58378 15.7437 6.36943 15.0281 6.34062 14.2932C6.28325 13.0908 6.6768 11.9104 7.44389 10.9827C7.99565 8.77589 10.2027 7.67238 10.2027 7.67238C10.8233 7.26832 11.3426 6.72633 11.7198 6.08888C11.8318 5.91432 11.9959 5.77907 12.1888 5.70265C12.6077 5.51344 13.1001 5.60353 13.4246 5.92897L13.524 6.02833L14.6165 6.75099C14.9612 6.98366 15.1678 7.37233 15.1683 7.78834V8.22414L15.2068 8.18556C15.5137 7.87843 15.983 7.80275 16.3709 7.99806L17.3694 8.50001C17.7117 8.66872 17.928 9.01784 17.9268 9.39943V9.87941L18.8426 10.3372C19.5833 10.707 19.9388 11.5659 19.6758 12.3511L19.5818 12.638L20.2662 12.8643C20.8877 13.073 21.4014 13.5193 21.6951 14.1055L22.3406 15.3965C21.1214 16.4219 19.9866 17.5435 18.9476 18.751C18.6172 19.1145 18.2361 19.4285 17.8164 19.6834Z" fill="#FEDEBB"/>
<path d="M17.9155 20.1194C17.8915 20.2632 17.8097 20.3909 17.6891 20.4724C17.5971 20.5371 17.4872 20.5718 17.3747 20.5718C17.1945 20.5703 17.0258 20.4819 16.9223 20.3345C15.2065 17.8794 10.9582 13.6201 10.914 13.5813C10.746 13.4119 10.706 13.1538 10.8146 12.9414C11.0517 12.396 11.0517 11.7766 10.8146 11.231C10.6901 10.9819 10.7704 10.6792 11.0024 10.5249C13.3361 8.96339 12.9279 7.23659 12.1884 5.70265C12.6073 5.51344 13.0998 5.60353 13.4242 5.92897L13.5236 6.02833C14.0312 7.42409 14.2575 9.46559 11.9677 11.1924C12.1481 11.8035 12.1445 12.4539 11.9567 13.0628C12.9223 14.0393 16.2658 17.4822 17.8161 19.6834C17.8215 19.689 17.8215 19.6946 17.8271 19.7C17.9118 19.8223 17.9435 19.9734 17.9155 20.1194Z" fill="#F5A585"/>
<path d="M12.4091 14.2933C12.1044 14.2933 11.8573 14.0462 11.8573 13.7415C11.8573 11.9605 14.4257 8.31354 14.7186 7.90363C14.8956 7.65558 15.2404 7.59797 15.4884 7.77521C15.7362 7.95221 15.7938 8.2967 15.6168 8.54474C14.59 9.98322 12.9608 12.6656 12.9608 13.7415C12.9608 14.0462 12.7137 14.2933 12.4091 14.2933Z" fill="#F5A585"/>
<path d="M14.0644 15.9483C13.808 15.9488 13.5854 15.7728 13.5263 15.5235C13.4675 15.2742 13.5878 15.0171 13.8171 14.9029C14.2944 14.6644 15.1596 13.1824 15.7912 12.1001C16.2778 11.17 16.8625 10.2947 17.5358 9.48931C17.7524 9.28032 18.0964 9.28325 18.3092 9.4959C18.5221 9.70879 18.5251 10.053 18.3158 10.2693C17.7157 11.0123 17.1891 11.8118 16.7441 12.6568C15.7101 14.4283 15.03 15.5301 14.3105 15.8904C14.2341 15.9285 14.1498 15.9483 14.0644 15.9483Z" fill="#F5A585"/>
<path d="M16.2705 18.7068C15.9658 18.7068 15.7188 18.46 15.7188 18.1553C15.7188 16.9414 16.7925 14.6463 19.1909 12.2478C19.4072 12.0388 19.7515 12.0418 19.9644 12.2547C20.177 12.4673 20.1802 12.8115 19.9709 13.0281C17.9258 15.0733 16.8223 17.1963 16.8223 18.1553C16.8223 18.46 16.5752 18.7068 16.2705 18.7068Z" fill="#F5A585"/>
<path d="M17.374 20.3621C17.0693 20.3621 16.8223 20.115 16.8223 19.8103C16.8223 19.5056 17.0693 19.2586 17.374 19.2586C17.7476 19.2586 18.626 18.3003 19.3315 17.5296C20.1431 16.5911 21.0391 15.7295 22.0085 14.9551C22.1663 14.8369 22.375 14.8118 22.5562 14.8892C22.7375 14.9666 22.8638 15.1348 22.8872 15.3306C22.9109 15.5264 22.8284 15.7198 22.6707 15.8379C21.7566 16.5723 20.9114 17.388 20.1453 18.2754C19.0352 19.4866 18.2332 20.3621 17.374 20.3621Z" fill="#F5A585"/>
<path d="M14.0644 24.7759C13.8542 24.7771 13.6618 24.6587 13.5678 24.4707C12.6022 22.5398 10.1152 22.0112 10.092 22.0061C9.80095 21.9392 9.61614 21.6526 9.67497 21.3598C9.73381 21.0671 10.0151 20.8742 10.3093 20.9248C10.4328 20.9492 13.3437 21.5571 14.5575 23.9775C14.643 24.1484 14.634 24.3515 14.5334 24.5141C14.433 24.6767 14.2555 24.7759 14.0644 24.7759Z" fill="#F5A585"/>
</g>
<defs>
<clipPath id="clip0_121_369">
<rect width="32" height="32" fill="white" transform="translate(0.5 0.5)"/>
</clipPath>
</defs>
</svg>
