<svg width="33" height="33" viewBox="0 0 33 33" fill="none" xmlns="http://www.w3.org/2000/svg">
<g clip-path="url(#clip0_121_307)">
<path d="M23.1206 6.56885H30.2932C30.9026 6.56885 31.3965 7.06299 31.3965 7.67236V27.5344H1.60352V7.67236C1.61206 7.1875 1.88257 6.74536 2.3103 6.51709L9.8794 6.56885H23.1206Z" fill="#A5B4B4"/>
<path d="M29.1899 9.32764V27.5344H3.81055V9.32764C3.81055 9.02295 4.05762 8.77588 4.3623 8.77588H28.6382C28.9429 8.77588 29.1899 9.02295 29.1899 9.32764Z" fill="#A0C7E7"/>
<path d="M29.1899 9.32764V16.8918C17.1292 15.8545 8.83691 18.6572 3.81055 21.4048V9.32764C3.81055 9.02295 4.05762 8.77588 4.3623 8.77588H28.6382C28.9429 8.77588 29.1899 9.02295 29.1899 9.32764Z" fill="#BDDCF3"/>
<path d="M32.5 28.0862V30.2932C32.5 31.512 31.512 32.5 30.2932 32.5H2.70679C1.48804 32.5 0.5 31.512 0.5 30.2932V28.0862C0.5 27.7815 0.74707 27.5344 1.05176 27.5344H31.9482C32.2529 27.5344 32.5 27.7815 32.5 28.0862Z" fill="#919D9E"/>
<path d="M20.2317 29.7415H12.7678C12.3499 29.7415 11.9678 29.5051 11.7808 29.1311L10.9824 27.5344H22.0171L21.2188 29.1311C21.0317 29.5051 20.6497 29.7415 20.2317 29.7415Z" fill="#668892"/>
<path d="M7.67236 29.7415C7.67236 30.0461 7.42529 30.2932 7.12061 30.2932H0.5V29.1897H7.12061C7.42529 29.1897 7.67236 29.4368 7.67236 29.7415Z" fill="#668892"/>
<path d="M9.87891 30.2932H9.32715C9.02246 30.2932 8.77539 30.0461 8.77539 29.7415C8.77539 29.4368 9.02246 29.1897 9.32715 29.1897H9.87891C10.1836 29.1897 10.4307 29.4368 10.4307 29.7415C10.4307 30.0461 10.1836 30.2932 9.87891 30.2932Z" fill="#668892"/>
<path d="M32.5005 29.1897V30.2932H25.8799C25.5752 30.2932 25.3281 30.0461 25.3281 29.7415C25.3281 29.4368 25.5752 29.1897 25.8799 29.1897H32.5005Z" fill="#668892"/>
<path d="M23.6719 30.2932H23.1201C22.8154 30.2932 22.5684 30.0461 22.5684 29.7415C22.5684 29.4368 22.8154 29.1897 23.1201 29.1897H23.6719C23.9766 29.1897 24.2236 29.4368 24.2236 29.7415C24.2236 30.0461 23.9766 30.2932 23.6719 30.2932Z" fill="#668892"/>
<path d="M25.3281 14.2932H7.67285C7.36816 14.2932 7.12109 14.0461 7.12109 13.7415C7.12109 13.4368 7.36816 13.1897 7.67285 13.1897H25.3281C25.6328 13.1897 25.8799 13.4368 25.8799 13.7415C25.8799 14.0461 25.6328 14.2932 25.3281 14.2932Z" fill="#A773B4"/>
<path d="M25.3281 25.3276H7.67285C7.36816 25.3276 7.12109 25.0806 7.12109 24.7759C7.12109 24.4712 7.36816 24.2241 7.67285 24.2241H25.3281C25.6328 24.2241 25.8799 24.4712 25.8799 24.7759C25.8799 25.0806 25.6328 25.3276 25.3281 25.3276Z" fill="#A773B4"/>
<path d="M26.4314 17.0518V21.4656C26.4294 22.0742 25.9365 22.5671 25.3279 22.5688H19.8105V15.9482H25.3279C25.9365 15.9502 26.4294 16.4431 26.4314 17.0518Z" fill="#F6DB6D"/>
<path d="M13.1897 15.9482H19.8103V22.5688H13.1897V15.9482Z" fill="#F4CD1E"/>
<path d="M13.1892 15.9482V22.5688H7.67188C7.06323 22.5671 6.57031 22.0742 6.56836 21.4656V17.0518C6.57031 16.4431 7.06323 15.9502 7.67188 15.9482H13.1892Z" fill="#F6DB6D"/>
<path d="M9.87943 20.9138C9.57474 20.9138 9.32767 20.6667 9.32767 20.362C9.34329 19.8645 9.47977 19.3782 9.72537 18.9453C9.3118 18.9209 8.90628 18.8205 8.52933 18.6489C8.25613 18.5134 8.14481 18.1824 8.28006 17.9094C8.41556 17.6365 8.74686 17.5249 9.01981 17.6601C9.56644 17.9016 10.1895 17.9016 10.7361 17.6601C10.9778 17.54 11.2713 17.6123 11.4292 17.8313C11.5874 18.0503 11.5638 18.3515 11.3733 18.5429C10.8706 19.0312 10.5398 19.6697 10.4312 20.362C10.4312 20.6667 10.1841 20.9138 9.87943 20.9138Z" fill="#CD4F38"/>
<path d="M16.5005 20.9138C16.1958 20.9138 15.9488 20.6667 15.9488 20.362C15.9644 19.8645 16.1009 19.3782 16.3465 18.9453C15.9331 18.9209 15.5276 18.8205 15.1504 18.6489C14.8775 18.5134 14.7659 18.1824 14.9014 17.9094C15.0369 17.6365 15.3679 17.5249 15.6409 17.6601C16.1875 17.9016 16.8106 17.9016 17.3574 17.6601C17.5991 17.54 17.8924 17.6123 18.0506 17.8313C18.2085 18.0503 18.1848 18.3515 17.9947 18.5429C17.4917 19.0312 17.1612 19.6697 17.0523 20.362C17.0523 20.6667 16.8052 20.9138 16.5005 20.9138Z" fill="#CD4F38"/>
<path d="M23.1197 20.9138C22.815 20.9138 22.5679 20.6667 22.5679 20.362C22.5835 19.8645 22.7202 19.3782 22.9658 18.9453C22.5523 18.9209 22.1468 18.8205 21.7696 18.6489C21.4966 18.5134 21.385 18.1824 21.5205 17.9094C21.656 17.6365 21.9871 17.5249 22.26 17.6601C22.8069 17.9016 23.43 17.9016 23.9766 17.6601C24.2183 17.54 24.5117 17.6123 24.6697 17.8313C24.8277 18.0503 24.8042 18.3515 24.6138 18.5429C24.1109 19.0312 23.7803 19.6697 23.6714 20.362C23.6714 20.6667 23.4243 20.9138 23.1197 20.9138Z" fill="#CD4F38"/>
<path d="M16.501 10.9827C16.1963 10.9827 15.9492 10.7358 15.9492 10.4312V7.12061C15.9492 6.81592 16.1963 6.56885 16.501 6.56885C16.8057 6.56885 17.0527 6.81592 17.0527 7.12061V10.4312C17.0527 10.7358 16.8057 10.9827 16.501 10.9827Z" fill="#A773B4"/>
<path d="M16.501 14.2932C16.1963 14.2932 15.9492 14.0461 15.9492 13.7415V12.6379C15.9492 12.3333 16.1963 12.0862 16.501 12.0862C16.8057 12.0862 17.0527 12.3333 17.0527 12.6379V13.7415C17.0527 14.0461 16.8057 14.2932 16.501 14.2932Z" fill="#A773B4"/>
<path d="M20.9136 4.91382C20.9136 7.35156 18.9375 9.32764 16.4998 9.32764C14.062 9.32764 12.0859 7.35156 12.0859 4.91382C12.0859 2.47607 14.062 0.5 16.4998 0.5C18.9375 0.5 20.9136 2.47607 20.9136 4.91382Z" fill="#EBECED"/>
<path d="M16.5 0.5V2.70679C15.9148 2.70801 15.3538 2.93994 14.9387 3.35229L13.3772 1.79102C14.2063 0.964111 15.3291 0.5 16.5 0.5Z" fill="#EBECED"/>
<path d="M19.6228 1.79102L18.0613 3.35229C17.6462 2.93994 17.0852 2.70801 16.5 2.70679V0.5C17.6709 0.5 18.7937 0.964111 19.6228 1.79102Z" fill="#23B972"/>
<path d="M20.9131 4.91382H18.7061C18.7051 4.32861 18.4731 3.76758 18.0605 3.35229L19.6221 1.79102C20.4487 2.61987 20.9131 3.74292 20.9131 4.91382Z" fill="#EBECED"/>
<path d="M20.9131 4.91382C20.9131 6.08447 20.4487 7.20752 19.6221 8.03662L18.0605 6.4751C18.4731 6.06006 18.7051 5.49902 18.7061 4.91382H20.9131Z" fill="#23B972"/>
<path d="M19.6228 8.03662C18.7937 8.86328 17.6709 9.32764 16.5 9.32764V7.12061C17.0852 7.11963 17.6462 6.8877 18.0613 6.4751L19.6228 8.03662Z" fill="#EBECED"/>
<path d="M16.5 7.12061V9.32764C15.3291 9.32764 14.2063 8.86328 13.3772 8.03662L14.9387 6.4751C15.3538 6.8877 15.9148 7.11963 16.5 7.12061Z" fill="#23B972"/>
<path d="M14.9385 6.4751L13.377 8.03662C12.5503 7.20752 12.0859 6.08447 12.0859 4.91382H14.293C14.2939 5.49902 14.5259 6.06006 14.9385 6.4751Z" fill="#EBECED"/>
<path d="M14.9385 3.35229C14.5259 3.76758 14.2939 4.32861 14.293 4.91382H12.0859C12.0859 3.74292 12.5503 2.61987 13.377 1.79102L14.9385 3.35229Z" fill="#23B972"/>
<path d="M18.7072 4.91379C18.706 5.96506 17.9623 6.86911 16.9311 7.07322C15.8998 7.27707 14.8679 6.72458 14.4662 5.7529C14.0646 4.78147 14.405 3.6616 15.2792 3.07786C16.1535 2.49411 17.3185 2.60911 18.0617 3.35227C18.4743 3.76755 18.7062 4.32859 18.7072 4.91379Z" fill="#5DC382"/>
</g>
<defs>
<clipPath id="clip0_121_307">
<rect width="32" height="32" fill="white" transform="translate(0.5 0.5)"/>
</clipPath>
</defs>
</svg>
