<svg width="33" height="33" viewBox="0 0 33 33" fill="none" xmlns="http://www.w3.org/2000/svg">
<g clip-path="url(#clip0_121_385)">
<path d="M2.73863 23.769C2.03465 23.7603 1.34628 23.5601 0.747257 23.19C0.498029 23.0238 0.430901 22.6869 0.597134 22.438C0.763367 22.1887 1.09998 22.1214 1.34921 22.2876C2.16011 22.7956 3.18998 22.7956 4.00088 22.2876C4.59771 21.8441 5.1589 21.3546 5.67932 20.8235C6.13921 20.3836 6.61423 19.9286 7.08925 19.5351C7.23864 19.4116 7.44246 19.3769 7.62408 19.4445C7.80569 19.5122 7.93726 19.6713 7.96972 19.8625C8.00194 20.0533 7.92993 20.2472 7.78079 20.3707C7.33482 20.7395 6.87395 21.1804 6.42871 21.6066C5.86386 22.1831 5.25288 22.7128 4.60186 23.19C4.05312 23.566 3.40381 23.7678 2.73863 23.769Z" fill="#936642"/>
<path d="M2.67598 25.9926C1.94074 26.0245 1.22138 25.7736 0.665558 25.2913C0.524712 25.1553 0.468081 24.9537 0.517633 24.764C0.56743 24.5743 0.715355 24.4264 0.905022 24.3766C1.09469 24.3271 1.29632 24.3837 1.43252 24.5245C1.78818 24.7957 2.22903 24.9317 2.67598 24.908C4.52407 24.908 5.64327 22.8571 6.46003 21.3598C6.54913 21.183 6.72732 21.069 6.92505 21.062C7.12301 21.0551 7.30877 21.1564 7.41007 21.3263C7.51138 21.4965 7.51186 21.7081 7.41154 21.8787C6.51862 23.5176 5.17045 25.9926 2.67598 25.9926Z" fill="#936642"/>
<path d="M25.4572 25.6335L23.4556 25.2334C23.2254 25.9071 22.7904 26.4922 22.2114 26.9067C22.1032 26.9641 22.0159 27.0539 21.9609 27.1633L24.731 27.5592C24.833 27.5738 24.9087 27.661 24.9089 27.7642V30.8385L24.6817 31.2922C24.5281 31.6013 24.6209 31.976 24.9009 32.1776C25.1806 32.3795 25.5656 32.3489 25.8102 32.1058L26.2261 31.6904C26.426 31.49 26.5508 31.2268 26.5791 30.9451L26.9138 27.6019C27.0065 26.669 26.3765 25.8175 25.4572 25.6335Z" fill="#936642"/>
<path d="M23.824 17.8235C21.655 17.2813 20.5704 16.1968 20.5704 15.1123C20.5704 14.2494 19.1986 13.3865 16.4539 14.707C15.6108 15.0932 14.9712 15.8189 14.6942 16.7038C13.8796 19.5393 18.9435 18.908 18.9435 18.908C18.9435 18.908 17.1828 19.283 17.0668 20.5452C17.0507 20.7683 17.173 20.9783 17.3749 21.0742C17.5768 21.1701 17.8167 21.1323 17.9793 20.9792C18.9891 20.0316 20.8785 18.3632 21.655 18.3632C22.7395 18.3659 22.1974 17.8235 23.824 17.8235Z" fill="#5496CE"/>
<path d="M23.2818 13.7912C23.2818 14.5398 22.6747 15.1469 21.9261 15.1469C21.1774 15.1469 20.5703 14.5398 20.5703 13.7912C20.5703 13.0423 21.1774 12.4354 21.9261 12.4354C22.6747 12.4354 23.2818 13.0423 23.2818 13.7912Z" fill="#FEDEBB"/>
<path d="M6.45989 18.366C6.24069 18.365 6.04346 18.232 5.96046 18.0291C5.87722 17.826 5.92458 17.5931 6.08032 17.4386C7.16974 16.356 8.62873 15.726 10.1639 15.675C10.4634 15.665 10.7143 15.8996 10.7246 16.1991C10.7346 16.4983 10.5003 16.7495 10.2007 16.7598C8.93899 16.8015 7.73972 17.3197 6.84435 18.2097C6.74208 18.3108 6.60391 18.3669 6.45989 18.366Z" fill="#BDDCF3"/>
<path d="M31.5941 15.147C31.4718 15.1467 31.3529 15.1052 31.2572 15.0293C30.7712 14.6297 30.2056 14.3382 29.5983 14.174C29.3081 14.1003 29.1326 13.8049 29.2063 13.5147C29.2802 13.2242 29.5754 13.0487 29.8658 13.1226C30.6216 13.3245 31.3258 13.685 31.9319 14.1801C32.1125 14.3236 32.1826 14.5658 32.1064 14.7835C32.0303 15.0012 31.8247 15.1472 31.5941 15.147Z" fill="#BDDCF3"/>
<path d="M32.3926 19.2098C31.9918 18.3745 30.5441 15.6545 28.705 15.6545L27.9205 14.8697C27.7481 14.6978 27.482 14.6617 27.2702 14.7816C27.0583 14.9014 26.9521 15.148 27.0109 15.3845L27.0783 15.6557C26.6575 16.0763 25.0745 16.9311 23.2708 17.662C23.4497 17.7196 23.6277 17.7782 23.8244 17.8248C22.1977 17.8248 22.7399 18.3669 21.6554 18.3669C20.8772 18.3669 18.9824 20.0415 17.9738 20.9878C17.8108 21.137 17.5732 21.1724 17.3738 21.0769C17.1744 20.9815 17.0528 20.7747 17.0665 20.5541C17.1761 19.2845 18.9439 18.9081 18.9439 18.9081C17.9662 19.0214 16.9767 18.9708 16.0156 18.7585C14.109 18.4467 12.1767 18.3215 10.2458 18.385C8.44777 18.4326 7.01489 19.9031 7.01367 21.7016C7.06786 24.8642 10.2673 24.3447 10.2673 25.958C10.2163 26.578 9.97804 27.1678 9.58406 27.6494C9.49154 27.7748 9.45737 27.934 9.49032 28.0863C9.52328 28.2386 9.62043 28.3695 9.75664 28.4454L14.0633 30.8385V31.5569C14.0633 31.7913 14.1566 32.0161 14.3221 32.1818L14.4846 32.3444C14.6201 32.4796 14.8178 32.5314 15.0024 32.4804C15.1867 32.4291 15.3292 32.2829 15.3758 32.0971L15.6436 31.0238C15.6749 30.8998 15.6905 30.7724 15.6902 30.6442V30.4817C15.6902 30.0208 15.4852 29.5836 15.1313 29.2887L13.0191 27.5283C12.7112 27.27 12.6451 26.8223 12.865 26.486C13.1379 26.0622 13.3327 25.5931 13.4404 25.1005C13.4728 24.9457 13.5805 24.8171 13.7272 24.7577C13.8739 24.6984 14.0406 24.7158 14.1719 24.8044C15.0395 25.3973 16.6366 26.351 18.0724 26.4855C18.2782 26.4994 18.4667 26.6058 18.5843 26.7752L20.5708 29.754L18.4017 29.2116L17.676 28.4871C17.4314 28.2437 17.0467 28.2135 16.7667 28.4151C16.487 28.617 16.3942 28.9914 16.5475 29.3005L16.9337 30.0728C17.1768 30.56 17.6208 30.9167 18.1491 31.049L20.7617 31.6997C21.3161 31.8381 21.9026 31.6758 22.3066 31.2718L22.4531 31.1254C22.9488 30.6301 23.0716 29.8729 22.758 29.2463L21.9444 27.625C21.8191 27.3533 21.9375 27.0315 22.209 26.9058C23.8506 26.0549 24.1266 21.4153 27.0756 19.4495C27.0756 19.4495 27.6178 19.9917 29.2447 19.9917C29.7795 20.1628 30.2797 20.4279 30.7213 20.7747C30.8609 20.9339 31.0801 20.9976 31.2832 20.9373L31.6393 20.8187C32.0768 20.6583 32.3997 20.2824 32.492 19.8257C32.5164 19.6153 32.482 19.4019 32.3926 19.2098Z" fill="#BE9379"/>
<path d="M20.6041 18.9081C20.336 18.9081 20.1083 18.7121 20.0683 18.4473C19.9799 17.8697 18.8849 17.4201 17.2782 17.3036C16.9787 17.2819 16.7534 17.0217 16.7749 16.7222C16.7963 16.4227 17.0568 16.1974 17.3563 16.2191C18.6664 16.3145 20.9002 16.7071 21.1404 18.2798C21.1853 18.5757 20.9819 18.8522 20.6858 18.8974C20.659 18.903 20.6314 18.9067 20.6041 18.9081Z" fill="#336A93"/>
<path d="M14.7984 22.2551C15.6257 22.9362 16.5906 23.43 17.6268 23.7029C18.0789 23.8013 18.5498 23.6609 18.8742 23.3309C19.7244 22.4594 21.4187 20.4629 21.4685 18.3961C20.61 18.6056 18.9198 20.1012 17.981 20.9802C17.8187 21.1354 17.5773 21.1745 17.3742 21.0783C17.1711 20.9819 17.0483 20.7705 17.0656 20.5464C17.1818 19.2829 18.9435 18.908 18.9435 18.908C17.9659 19.0213 16.9763 18.9707 16.0153 18.7584C15.5425 18.7042 15.0862 18.6358 14.6 18.5746C14.5844 19.3408 14.4935 20.1039 14.3288 20.8523C14.1938 21.3715 14.3781 21.9217 14.7984 22.2551Z" fill="#ED634C"/>
<path d="M15.1483 25.9579C14.8944 25.9608 14.6723 25.7873 14.6139 25.54C14.5556 25.2927 14.6767 25.0381 14.9054 24.9276C15.4236 24.6002 15.8271 24.1196 16.0595 23.5523C16.1901 23.2828 16.5147 23.1703 16.7842 23.3009C17.0537 23.4317 17.1662 23.7561 17.0354 24.0256C16.6993 24.8087 16.1237 25.4653 15.3914 25.9008C15.316 25.9384 15.2327 25.9579 15.1483 25.9579Z" fill="#CD4F38"/>
<path d="M3.21812 9.18188C1.45571 9.18188 0.782727 8.59775 0.665558 8.48058C0.524712 8.34437 0.468081 8.14274 0.517633 7.95332C0.56743 7.76365 0.715355 7.61548 0.905022 7.56593C1.09469 7.51638 1.29632 7.57276 1.43252 7.71385C1.97394 8.02289 2.59762 8.15665 3.21812 8.09709C4.25165 8.09709 4.84506 7.70189 4.84506 7.01255C4.84506 6.24485 4.48379 6.09083 3.151 5.92362C2.09843 5.79253 0.506649 5.59335 0.506649 3.75893C0.506649 2.349 1.90364 1.58984 3.21812 1.58984C5.14335 1.58984 5.83367 2.804 5.86223 2.85551C6.00088 3.11572 5.90592 3.43891 5.64888 3.58317C5.3916 3.72719 5.06646 3.63956 4.91658 3.38594C4.50966 2.87333 3.8689 2.60482 3.21812 2.67439C2.54245 2.67439 1.59119 3.01051 1.59119 3.75893C1.59119 4.52687 1.95246 4.6809 3.2855 4.84786C4.33806 4.97894 5.9296 5.17813 5.9296 7.01255C5.9296 8.01361 5.21927 9.18188 3.21812 9.18188Z" fill="#23B972"/>
<path d="M3.21805 10.2664C2.91854 10.2664 2.6759 10.0235 2.6759 9.72398V8.63944C2.6759 8.33993 2.91854 8.09705 3.21805 8.09705C3.51756 8.09705 3.76044 8.33993 3.76044 8.63944V9.72398C3.76044 10.0235 3.51756 10.2664 3.21805 10.2664Z" fill="#23B972"/>
<path d="M3.21805 2.67433C2.91854 2.67433 2.6759 2.43145 2.6759 2.13194V1.0474C2.6759 0.747886 2.91854 0.505249 3.21805 0.505249C3.51756 0.505249 3.76044 0.747886 3.76044 1.0474V2.13194C3.76044 2.43145 3.51756 2.67433 3.21805 2.67433Z" fill="#23B972"/>
<path d="M8.64061 6.47041H7.55606C7.25655 6.47041 7.01367 6.22753 7.01367 5.92801C7.01367 5.6285 7.25655 5.38586 7.55606 5.38586H8.64061C8.94012 5.38586 9.18275 5.6285 9.18275 5.92801C9.18275 6.22753 8.94012 6.47041 8.64061 6.47041Z" fill="#ED634C"/>
<path d="M11.8945 6.47041H10.81C10.5105 6.47041 10.2676 6.22753 10.2676 5.92801C10.2676 5.6285 10.5105 5.38586 10.81 5.38586H11.8945C12.194 5.38586 12.4369 5.6285 12.4369 5.92801C12.4369 6.22753 12.194 6.47041 11.8945 6.47041Z" fill="#ED634C"/>
<path d="M15.1482 6.47041H14.0636C13.7641 6.47041 13.5215 6.22753 13.5215 5.92801C13.5215 5.6285 13.7641 5.38586 14.0636 5.38586H15.1482C15.4477 5.38586 15.6906 5.6285 15.6906 5.92801C15.6906 6.22753 15.4477 6.47041 15.1482 6.47041Z" fill="#ED634C"/>
<path d="M18.4023 7.55495C18.1028 7.55495 17.8599 7.31207 17.8599 7.01255C17.8599 6.71304 17.6173 6.47041 17.3178 6.47041C17.0183 6.47041 16.7754 6.22753 16.7754 5.92801C16.7754 5.6285 17.0183 5.38586 17.3178 5.38586C18.2161 5.38586 18.9445 6.11402 18.9445 7.01255C18.9445 7.31207 18.7018 7.55495 18.4023 7.55495Z" fill="#ED634C"/>
<path d="M18.4018 10.8086C18.1023 10.8086 17.8594 10.566 17.8594 10.2665V9.18192C17.8594 8.88241 18.1023 8.63953 18.4018 8.63953C18.7013 8.63953 18.9439 8.88241 18.9439 9.18192V10.2665C18.9439 10.566 18.7013 10.8086 18.4018 10.8086Z" fill="#ED634C"/>
<path d="M18.4018 14.0624C18.1023 14.0624 17.8594 13.8195 17.8594 13.52V12.4355C17.8594 12.1359 18.1023 11.8931 18.4018 11.8931C18.7013 11.8931 18.9439 12.1359 18.9439 12.4355V13.52C18.9439 13.8195 18.7013 14.0624 18.4018 14.0624Z" fill="#ED634C"/>
</g>
<defs>
<clipPath id="clip0_121_385">
<rect width="32" height="32" fill="white" transform="translate(0.5 0.5)"/>
</clipPath>
</defs>
</svg>
