<svg width="33" height="33" viewBox="0 0 33 33" fill="none" xmlns="http://www.w3.org/2000/svg">
<g clip-path="url(#clip0_121_340)">
<path d="M12.0934 26.9722H6.30275C5.25434 26.8716 4.2396 27.3741 3.68416 28.2688C3.12872 29.1637 3.12872 30.296 3.68416 31.1907C4.2396 32.0856 5.25434 32.5879 6.30275 32.4873H26.7084C27.7566 32.5879 28.7713 32.0856 29.3268 31.1907C29.8822 30.296 29.8822 29.1637 29.3268 28.2688C28.7713 27.3741 27.7566 26.8716 26.7084 26.9722H12.0934Z" fill="#F4CD1E"/>
<path d="M19.816 24.7662H26.2311C26.6868 24.7672 27.0963 24.4878 27.2613 24.0632L30.846 14.839L27.4196 18.2657C27.3469 18.3384 27.2376 18.3601 27.1427 18.3208C27.0475 18.2815 26.9855 18.1888 26.9855 18.0858V8.22107L20.3897 17.6436C20.3319 17.7258 20.2313 17.7666 20.1327 17.7473C20.0342 17.728 19.9561 17.6526 19.9336 17.5548L16.507 2.70593L13.0806 17.5548C13.0579 17.6526 12.9798 17.728 12.8812 17.7473C12.7826 17.7666 12.6821 17.7258 12.6245 17.6436L6.02849 8.22107V18.0858C6.02849 18.1888 5.96651 18.2815 5.87157 18.3208C5.7764 18.3601 5.66706 18.3384 5.59434 18.2657L2.16797 14.839L5.75272 24.0632C5.91794 24.4878 6.3272 24.7672 6.78283 24.7662H19.816Z" fill="#F4CD1E"/>
<path d="M29.742 29.7299C29.6625 31.3274 28.3066 32.56 26.7088 32.4873H16.5059V26.9722H26.7088C28.3066 26.8995 29.6625 28.1324 29.742 29.7299Z" fill="#F6DB6D"/>
<path d="M30.8449 14.839L27.2601 24.0602C27.0949 24.4858 26.6854 24.7662 26.2288 24.7662H16.5059V2.70593L19.9308 17.5526C19.9532 17.6509 20.0318 17.7268 20.1309 17.7458C20.23 17.7649 20.331 17.7236 20.3886 17.6409L26.9844 8.22107V18.0875C26.9856 18.1902 27.0483 18.2823 27.1435 18.3208C27.2389 18.3594 27.3477 18.3369 27.4202 18.264L30.8449 14.839Z" fill="#F6DB6D"/>
<path d="M20.9185 26.9721H25.8821V24.7662H7.13074V26.9721H20.9185Z" fill="#F6AB27"/>
<path d="M17.6085 1.60308C17.6085 2.21221 17.1146 2.70591 16.5054 2.70591C15.8963 2.70591 15.4023 2.21221 15.4023 1.60308C15.4023 0.993944 15.8963 0.5 16.5054 0.5C17.1146 0.5 17.6085 0.993944 17.6085 1.60308Z" fill="#ED634C"/>
<path d="M7.12974 7.11797C7.12974 7.72735 6.63604 8.22105 6.0269 8.22105C5.41777 8.22105 4.92383 7.72735 4.92383 7.11797C4.92383 6.50884 5.41777 6.01514 6.0269 6.01514C6.63604 6.01514 7.12974 6.50884 7.12974 7.11797Z" fill="#ED634C"/>
<path d="M2.71983 13.7361C2.71983 14.3453 2.22588 14.839 1.61675 14.839C1.00762 14.839 0.513672 14.3453 0.513672 13.7361C0.513672 13.127 1.00762 12.6331 1.61675 12.6331C2.22588 12.6331 2.71983 13.127 2.71983 13.7361Z" fill="#ED634C"/>
<path d="M28.0887 7.11797C28.0887 7.72735 27.595 8.22105 26.9856 8.22105C26.3765 8.22105 25.8828 7.72735 25.8828 7.11797C25.8828 6.50884 26.3765 6.01514 26.9856 6.01514C27.595 6.01514 28.0887 6.50884 28.0887 7.11797Z" fill="#ED634C"/>
<path d="M32.5008 13.7361C32.5008 14.3453 32.0071 14.839 31.3978 14.839C30.7886 14.839 30.2949 14.3453 30.2949 13.7361C30.2949 13.127 30.7886 12.6331 31.3978 12.6331C32.0071 12.6331 32.5008 13.127 32.5008 13.7361Z" fill="#ED634C"/>
<path d="M9.33737 23.1116H7.53731C7.30962 23.1116 7.1056 22.9721 7.02311 22.76L6.59408 21.6569C6.48402 21.3728 6.62483 21.0531 6.9089 20.9428C7.19272 20.8328 7.51242 20.9736 7.62272 21.2577L7.91436 22.0088H9.33737C9.64194 22.0088 9.88891 22.2555 9.88891 22.5601C9.88891 22.8649 9.64194 23.1116 9.33737 23.1116Z" fill="#F6AB27"/>
<path d="M25.4766 23.1116H23.6765C23.372 23.1116 23.125 22.8649 23.125 22.5601C23.125 22.2555 23.372 22.0088 23.6765 22.0088H25.0996L25.3917 21.2576C25.5056 20.9794 25.8214 20.8437 26.1018 20.9526C26.382 21.0614 26.5236 21.3745 26.4198 21.6569L25.9901 22.76C25.9078 22.9718 25.7041 23.1114 25.4766 23.1116Z" fill="#F6AB27"/>
<path d="M14.3008 26.9721C14.3008 26.9721 16.5067 29.0994 16.5067 30.2813C16.5067 29.0994 18.7128 26.9721 18.7128 26.9721C18.7128 26.9721 16.5067 24.845 16.5067 23.6631C16.5067 24.845 14.3008 26.9721 14.3008 26.9721Z" fill="#ED634C"/>
<path d="M16.5067 23.6631V30.2813C16.5067 29.1009 14.3008 26.9721 14.3008 26.9721C14.3008 26.9721 16.5067 24.8433 16.5067 23.6631Z" fill="#CD4F38"/>
<path d="M16.5047 22.0088C16.2001 22.0088 15.9531 21.7618 15.9531 21.4573V19.8026C15.9531 19.4981 16.2001 19.2511 16.5047 19.2511C16.8092 19.2511 17.0562 19.4981 17.0562 19.8026V21.4573C17.0562 21.7618 16.8092 22.0088 16.5047 22.0088Z" fill="#F6AB27"/>
<path d="M19.2623 23.1116C19.0394 23.1116 18.8383 22.9773 18.7529 22.7711C18.6675 22.5652 18.7149 22.3279 18.8725 22.1703L19.9753 21.0672C20.1918 20.8583 20.5359 20.8612 20.7485 21.0741C20.9613 21.2866 20.9642 21.6307 20.7553 21.8469L19.6522 22.95C19.5488 23.0535 19.4087 23.1116 19.2623 23.1116Z" fill="#F6AB27"/>
<path d="M13.7474 23.1116C13.601 23.1116 13.4609 23.0535 13.3574 22.95L12.2544 21.8469C12.0455 21.6307 12.0484 21.2866 12.2612 21.0741C12.474 20.8612 12.8179 20.8583 13.0343 21.0672L14.1371 22.1703C14.295 22.3279 14.3421 22.5652 14.2567 22.7711C14.1713 22.9773 13.9705 23.1116 13.7474 23.1116Z" fill="#F6AB27"/>
<path d="M6.0269 29.7299C6.0269 30.0344 5.77993 30.2814 5.47537 30.2814C5.1708 30.2814 4.92383 30.0344 4.92383 29.7299C4.92383 29.4253 5.1708 29.1783 5.47537 29.1783C5.77993 29.1783 6.0269 29.4253 6.0269 29.7299Z" fill="#F6AB27"/>
<path d="M8.23198 29.7299C8.23198 30.0344 7.98501 30.2814 7.68044 30.2814C7.37588 30.2814 7.12891 30.0344 7.12891 29.7299C7.12891 29.4253 7.37588 29.1783 7.68044 29.1783C7.98501 29.1783 8.23198 29.4253 8.23198 29.7299Z" fill="#F6AB27"/>
<path d="M10.439 29.7299C10.439 30.0344 10.192 30.2814 9.88748 30.2814C9.58291 30.2814 9.33594 30.0344 9.33594 29.7299C9.33594 29.4253 9.58291 29.1783 9.88748 29.1783C10.192 29.1783 10.439 29.4253 10.439 29.7299Z" fill="#F6AB27"/>
<path d="M12.6441 29.7299C12.6441 30.0344 12.3971 30.2814 12.0926 30.2814C11.788 30.2814 11.541 30.0344 11.541 29.7299C11.541 29.4253 11.788 29.1783 12.0926 29.1783C12.3971 29.1783 12.6441 29.4253 12.6441 29.7299Z" fill="#F6AB27"/>
<path d="M21.4683 29.7299C21.4683 30.0344 21.2213 30.2814 20.9168 30.2814C20.6122 30.2814 20.3652 30.0344 20.3652 29.7299C20.3652 29.4253 20.6122 29.1783 20.9168 29.1783C21.2213 29.1783 21.4683 29.4253 21.4683 29.7299Z" fill="#F6AB27"/>
<path d="M23.6749 29.7299C23.6749 30.0344 23.4281 30.2814 23.1233 30.2814C22.8187 30.2814 22.572 30.0344 22.572 29.7299C22.572 29.4253 22.8187 29.1783 23.1233 29.1783C23.4281 29.1783 23.6749 29.4253 23.6749 29.7299Z" fill="#F6AB27"/>
<path d="M25.8804 29.7299C25.8804 30.0344 25.6334 30.2814 25.3289 30.2814C25.0243 30.2814 24.7773 30.0344 24.7773 29.7299C24.7773 29.4253 25.0243 29.1783 25.3289 29.1783C25.6334 29.1783 25.8804 29.4253 25.8804 29.7299Z" fill="#F6AB27"/>
<path d="M28.0875 29.7299C28.0875 30.0344 27.8405 30.2814 27.5359 30.2814C27.2313 30.2814 26.9844 30.0344 26.9844 29.7299C26.9844 29.4253 27.2313 29.1783 27.5359 29.1783C27.8405 29.1783 28.0875 29.4253 28.0875 29.7299Z" fill="#F6AB27"/>
</g>
<defs>
<clipPath id="clip0_121_340">
<rect width="32" height="32" fill="white" transform="translate(0.5 0.5)"/>
</clipPath>
</defs>
</svg>
