<svg width="48" height="48" viewBox="0 0 48 48" fill="none" xmlns="http://www.w3.org/2000/svg">
<rect width="48" height="48" rx="24" fill="url(#paint0_linear_121_836)"/>
<path d="M23.9949 21.6886L32.9737 30.667C33.2203 30.9142 33.55 31.0502 33.9017 31.0502C34.2535 31.0502 34.583 30.9142 34.83 30.667L35.6164 29.8802C35.8638 29.6334 36 29.3035 36 28.9519C36 28.6002 35.8638 28.2707 35.6164 28.0237L24.9264 17.3335C24.6786 17.0855 24.3475 16.9497 23.9955 16.9507C23.642 16.9497 23.3112 17.0853 23.0632 17.3335L12.3836 28.0137C12.1362 28.2607 12 28.5903 12 28.9421C12 29.2937 12.1362 29.6233 12.3836 29.8705L13.17 30.657C13.6818 31.1688 14.5149 31.1688 15.0265 30.657L23.9949 21.6886Z" fill="white"/>
<defs>
<linearGradient id="paint0_linear_121_836" x1="24.1655" y1="-7.95789" x2="27.1589" y2="53.9139" gradientUnits="userSpaceOnUse">
<stop stop-color="#392B6B"/>
<stop offset="1" stop-color="#3942B1"/>
</linearGradient>
</defs>
</svg>
