<svg width="24" height="24" viewBox="0 0 24 24" fill="none" xmlns="http://www.w3.org/2000/svg">
<g clip-path="url(#clip0_121_73)">
<path d="M0.738679 12.6829C0.318821 12.8204 0.0899413 13.2723 0.227452 13.692L2.98738 22.112V11.9457L0.738679 12.6829Z" fill="#DADCDA"/>
<path d="M9.78821 22.7999V14.4L9.32624 13.4757C9.10395 13.0313 8.98823 12.5413 8.98823 12.0444V10H3.78826C3.34643 10 2.98828 10.3582 2.98828 10.8V22.7999C2.98828 23.2417 3.34643 23.5999 3.78826 23.5999H10.5882C10.1464 23.5999 9.78821 23.2417 9.78821 22.7999Z" fill="#EBECED"/>
<path d="M18.5882 23.5999H20.1882C20.63 23.5999 20.9882 23.2417 20.9882 22.7999V14.4L21.4502 13.4757C21.6724 13.0313 21.7882 12.5413 21.7882 12.0444V4.40017C21.7882 3.95834 21.43 3.60019 20.9882 3.60019H9.78826C9.34643 3.60019 8.98828 3.95834 8.98828 4.40017V12.0444C8.98828 12.5413 9.104 13.0313 9.32629 13.4757L9.78826 14.4V22.7999C9.78826 23.2417 10.1464 23.5999 10.5882 23.5999H18.5882Z" fill="#717275"/>
<path d="M8.35862 15.6001C8.15263 15.5957 7.95378 15.6755 7.80821 15.8211C7.66246 15.9668 7.58263 16.1657 7.58702 16.3717C7.59142 16.1657 7.51158 15.9668 7.36583 15.8211C7.22026 15.6755 7.02141 15.5957 6.81542 15.6001C6.2586 15.6261 5.81311 16.0716 5.78711 16.6284C5.78711 17.9143 7.58702 17.9143 7.58702 19.2001C7.58702 17.9143 9.38693 17.9143 9.38693 16.6284C9.36093 16.0716 8.91544 15.6261 8.35862 15.6001Z" fill="#ED634C"/>
<path d="M9.78711 14.4H20.987V16H9.78711V14.4Z" fill="#445C71"/>
<path d="M14.1883 13.2002H9.38818C9.16736 13.2002 8.98828 13.0209 8.98828 12.8001C8.98828 12.5791 9.16736 12.4 9.38818 12.4H14.1883C14.4091 12.4 14.5881 12.5791 14.5881 12.8001C14.5881 13.0209 14.4091 13.2002 14.1883 13.2002Z" fill="#445C71"/>
<path d="M21.3874 13.2001H16.5875C16.3667 13.2001 16.1876 13.0209 16.1876 12.8001C16.1876 12.5791 16.3667 12.4 16.5875 12.4H21.3874C21.6084 12.4 21.7875 12.5791 21.7875 12.8001C21.7875 13.0209 21.6084 13.2001 21.3874 13.2001Z" fill="#445C71"/>
<path d="M14.1867 2.00021H16.5866C17.0285 2.00021 17.3866 2.35836 17.3866 2.80019V3.60018H13.3867V2.80019C13.3867 2.35836 13.7449 2.00021 14.1867 2.00021Z" fill="#DADCDA"/>
<path d="M15.3879 0.400085C15.8297 0.400085 16.188 0.75842 16.188 1.20025V2.00023H14.5879V1.20025C14.5879 0.75842 14.9462 0.400085 15.3879 0.400085Z" fill="#F4CD1E"/>
<path d="M17.7875 1.20024C17.6017 1.20042 17.4402 1.07298 17.3975 0.892255C17.3547 0.711348 17.442 0.524949 17.6083 0.442186L18.4083 0.0421034C18.5363 -0.0217999 18.6884 -0.0124616 18.8078 0.0662731C18.927 0.145191 18.9951 0.281603 18.9865 0.424241C18.9779 0.567062 18.8939 0.69432 18.7659 0.758223L17.9659 1.15812C17.9104 1.18577 17.8494 1.20005 17.7875 1.20024Z" fill="#F4CD1E"/>
<path d="M12.9869 1.20023C12.9252 1.20078 12.8642 1.18705 12.8086 1.16014L12.0086 0.760236C11.8108 0.66136 11.7306 0.421127 11.8293 0.223375C11.9282 0.025623 12.1684 -0.0545765 12.3662 0.0441165L13.1662 0.444199C13.3301 0.52806 13.4156 0.713178 13.3731 0.892437C13.3306 1.0717 13.1711 1.19877 12.9869 1.20023Z" fill="#F4CD1E"/>
<path d="M17.1879 5.20016H13.5879C11.931 5.20016 10.5879 6.54323 10.5879 8.20014C10.5879 9.85686 11.931 11.2001 13.5879 11.2001H17.1879C18.8448 11.2001 20.1878 9.85686 20.1878 8.20014C20.1878 6.54323 18.8448 5.20016 17.1879 5.20016Z" fill="#A0C7E7"/>
<path d="M20.5871 11.2001C20.5871 11.4209 20.408 11.6 20.1872 11.6C19.9662 11.6 19.7871 11.4209 19.7871 11.2001C19.7871 10.9791 19.9662 10.8 20.1872 10.8C20.408 10.8 20.5871 10.9791 20.5871 11.2001Z" fill="#445C71"/>
<path d="M10.9876 11.2001C10.9876 11.4209 10.8085 11.6 10.5875 11.6C10.3667 11.6 10.1876 11.4209 10.1876 11.2001C10.1876 10.9791 10.3667 10.8 10.5875 10.8C10.8085 10.8 10.9876 10.9791 10.9876 11.2001Z" fill="#445C71"/>
<path d="M14.1867 9.60016C14.1867 9.82098 14.0076 10.0001 13.7866 10.0001C13.5658 10.0001 13.3867 9.82098 13.3867 9.60016C13.3867 9.37915 13.5658 9.20007 13.7866 9.20007C14.0076 9.20007 14.1867 9.37915 14.1867 9.60016Z" fill="#ED634C"/>
<path d="M15.7883 9.60016C15.7883 9.82098 15.6092 10.0001 15.3882 10.0001C15.1674 10.0001 14.9883 9.82098 14.9883 9.60016C14.9883 9.37915 15.1674 9.20007 15.3882 9.20007C15.6092 9.20007 15.7883 9.37915 15.7883 9.60016Z" fill="#ED634C"/>
<path d="M17.3879 9.60016C17.3879 9.82098 17.2088 10.0001 16.988 10.0001C16.767 10.0001 16.5879 9.82098 16.5879 9.60016C16.5879 9.37915 16.767 9.20007 16.988 9.20007C17.2088 9.20007 17.3879 9.37915 17.3879 9.60016Z" fill="#ED634C"/>
<path d="M10.9876 5.20015C10.9876 5.42098 10.8085 5.60005 10.5875 5.60005C10.3667 5.60005 10.1876 5.42098 10.1876 5.20015C10.1876 4.97915 10.3667 4.80007 10.5875 4.80007C10.8085 4.80007 10.9876 4.97915 10.9876 5.20015Z" fill="#445C71"/>
<path d="M20.5871 5.20016C20.5871 5.42098 20.408 5.60006 20.1872 5.60006C19.9662 5.60006 19.7871 5.42098 19.7871 5.20016C19.7871 4.97915 19.9662 4.80008 20.1872 4.80008C20.408 4.80008 20.5871 4.97915 20.5871 5.20016Z" fill="#445C71"/>
<path d="M16.9879 19.6C16.7669 19.6 16.5878 19.4209 16.5878 19.2001C16.5878 18.9791 16.7669 18.8 16.9879 18.8C17.2087 18.8 17.3878 18.6209 17.3878 18.3999C17.3878 18.1791 17.2087 18 16.9879 18H13.7878C13.5669 18 13.3879 18.1791 13.3879 18.3999C13.3879 18.6209 13.5669 18.8 13.7878 18.8C14.0088 18.8 14.1879 18.9791 14.1879 19.2001C14.1879 19.4209 14.0088 19.6 13.7878 19.6C13.1251 19.6 12.5879 19.0628 12.5879 18.3999C12.5879 17.7373 13.1251 17.2 13.7878 17.2H16.9879C17.6505 17.2 18.1878 17.7373 18.1878 18.3999C18.1878 19.0628 17.6505 19.6 16.9879 19.6Z" fill="#445C71"/>
<path d="M16.9889 21.2C16.8014 21.2023 16.6376 21.0742 16.5947 20.8918C16.5517 20.7094 16.641 20.5216 16.8097 20.4401L17.6097 20.04C17.7376 19.9761 17.8898 19.9853 18.009 20.0642C18.1284 20.1429 18.1965 20.2795 18.1879 20.4221C18.1793 20.5648 18.0953 20.692 17.9673 20.7559L17.1673 21.156C17.112 21.1844 17.051 21.1994 16.9889 21.2Z" fill="#F4CD1E"/>
<path d="M12.5885 21.6C12.401 21.6022 12.2374 21.4742 12.1943 21.2919C12.1513 21.1095 12.2406 20.9216 12.4093 20.84L13.2093 20.4401C13.407 20.3412 13.6473 20.4214 13.7461 20.6192C13.8448 20.8169 13.7646 21.0573 13.5669 21.156L12.7669 21.5559C12.7116 21.5843 12.6506 21.5993 12.5885 21.6Z" fill="#F4CD1E"/>
<path d="M15.3893 22.4C15.3276 22.4006 15.2666 22.3868 15.2109 22.3599L14.4109 21.96C14.2132 21.8612 14.133 21.6209 14.2317 21.4232C14.3306 21.2254 14.5708 21.1452 14.7685 21.2439L15.5685 21.644C15.7324 21.728 15.8179 21.913 15.7754 22.0922C15.7329 22.2715 15.5735 22.3986 15.3893 22.4Z" fill="#F4CD1E"/>
<path d="M15.7877 20.4C15.726 20.4006 15.6648 20.387 15.6094 20.3601L14.8094 19.96C14.6116 19.8613 14.5314 19.6209 14.6301 19.4231C14.7288 19.2256 14.9692 19.1454 15.167 19.2441L15.967 19.644C16.1308 19.728 16.2162 19.9131 16.1737 20.0924C16.1312 20.2715 15.9719 20.3985 15.7877 20.4Z" fill="#F4CD1E"/>
<path d="M13.7866 8.40007C13.5658 8.40007 13.3867 8.22099 13.3867 8.00017V6.80011C13.3867 6.5791 13.5658 6.40002 13.7866 6.40002C14.0076 6.40002 14.1867 6.5791 14.1867 6.80011V8.00017C14.1867 8.22099 14.0076 8.40007 13.7866 8.40007Z" fill="#ED634C"/>
<path d="M15.3882 8.40007C15.1674 8.40007 14.9883 8.22099 14.9883 8.00017V6.80011C14.9883 6.5791 15.1674 6.40002 15.3882 6.40002C15.6092 6.40002 15.7883 6.5791 15.7883 6.80011V8.00017C15.7883 8.22099 15.6092 8.40007 15.3882 8.40007Z" fill="#ED634C"/>
<path d="M16.988 8.40007C16.767 8.40007 16.5879 8.22099 16.5879 8.00017V6.80011C16.5879 6.5791 16.767 6.40002 16.988 6.40002C17.2088 6.40002 17.3879 6.5791 17.3879 6.80011V8.00017C17.3879 8.22099 17.2088 8.40007 16.988 8.40007Z" fill="#ED634C"/>
<path d="M21.7871 8.80017H22.1872C22.8498 8.80017 23.3871 9.3374 23.3871 10.0001C23.3871 10.6629 22.8498 11.2001 22.1872 11.2001H21.7871V8.80017Z" fill="#B4B4B3"/>
<path d="M23.3882 10.4001C23.1674 10.4001 22.9883 10.2211 22.9883 10V5.20016C22.9883 4.97915 23.1674 4.80008 23.3882 4.80008C23.6092 4.80008 23.7883 4.97915 23.7883 5.20016V10C23.7883 10.2211 23.6092 10.4001 23.3882 10.4001Z" fill="#DADCDA"/>
<path d="M15.7878 24C15.6004 24.0022 15.4366 23.8742 15.3935 23.6918C15.3505 23.5095 15.4399 23.3216 15.6085 23.2399L16.4085 22.84C16.5365 22.7761 16.6886 22.7853 16.808 22.8642C16.9272 22.9429 16.9953 23.0793 16.9867 23.2222C16.9781 23.3648 16.8941 23.4921 16.7661 23.556L15.9661 23.956C15.911 23.9842 15.8498 23.9994 15.7878 24Z" fill="#F4CD1E"/>
</g>
<defs>
<clipPath id="clip0_121_73">
<rect width="24" height="24" fill="white"/>
</clipPath>
</defs>
</svg>
