<svg width="24" height="24" viewBox="0 0 24 24" fill="none" xmlns="http://www.w3.org/2000/svg">
<g clip-path="url(#clip0_121_146)">
<path d="M11.4588 0.169874L0.4493 7.64218C0.082212 7.89245 -0.0827487 8.35017 0.0402853 8.77713C0.163319 9.20408 0.546519 9.50398 0.990503 9.52046H23.0096C23.4535 9.50398 23.8367 9.20408 23.9598 8.77713C24.0828 8.35017 23.9179 7.89245 23.5506 7.64218L12.5412 0.169874C12.2148 -0.0533084 11.7851 -0.0533084 11.4588 0.169874Z" fill="#D6A292"/>
<path d="M9.10419 21.1056C9.09504 21.1056 9.08552 21.1056 9.07637 21.1056C8.9667 21.0985 8.86435 21.0479 8.79185 20.9652C8.71935 20.8824 8.68291 20.7742 8.69042 20.6646C8.79423 19.1195 9.27794 14.0718 11.1729 14.0718C11.505 14.0621 11.8263 14.1897 12.0612 14.4246C12.2963 14.6595 12.4239 14.981 12.4142 15.3129C12.4153 15.5416 12.2309 15.7276 12.0025 15.7289C11.774 15.73 11.5878 15.5456 11.5867 15.3172C11.5986 15.2038 11.559 15.091 11.4788 15.0101C11.3986 14.9292 11.2864 14.8886 11.1729 14.8994C10.4257 14.8994 9.70032 17.9664 9.51797 20.7191C9.50351 20.9368 9.32243 21.106 9.10419 21.1056Z" fill="#BDDCF3"/>
<path d="M14.8963 21.1056C14.678 21.106 14.497 20.9368 14.4825 20.7191C14.2956 17.9086 13.5856 14.8994 12.8276 14.8994C12.7139 14.8886 12.6017 14.9294 12.5215 15.0107C12.4413 15.0918 12.4017 15.2046 12.4138 15.3181C12.4129 15.4658 12.3332 15.6019 12.2047 15.6751C12.0762 15.7481 11.9186 15.7472 11.7909 15.6725C11.6633 15.5978 11.5853 15.4609 11.5863 15.3129C11.5766 14.981 11.7042 14.6595 11.9391 14.4246C12.174 14.1897 12.4955 14.0621 12.8276 14.0718C14.7225 14.0718 15.2062 19.1195 15.31 20.6646C15.3176 20.7742 15.2809 20.8824 15.2084 20.9654C15.1359 21.0481 15.0334 21.0985 14.9236 21.1056H14.8963Z" fill="#A0C7E7"/>
<path d="M11.9997 21.1056C11.7712 21.1056 11.5859 20.9203 11.5859 20.6918V15.3129C11.5859 15.0845 11.7712 14.8994 11.9997 14.8994C12.2282 14.8994 12.4135 15.0845 12.4135 15.3129V20.6918C12.4135 20.9203 12.2282 21.1056 11.9997 21.1056Z" fill="#A0C7E7"/>
<path d="M15.3114 14.8994C15.1537 14.9001 15.0094 14.8115 14.939 14.6705C14.7789 14.3283 14.4466 14.0995 14.07 14.0718C13.8415 14.0718 13.6562 13.8865 13.6562 13.658C13.6562 13.4295 13.8415 13.2443 14.07 13.2443C14.761 13.2737 15.3802 13.6791 15.6837 14.3007C15.748 14.4292 15.7409 14.5819 15.6649 14.704C15.5889 14.8261 15.4551 14.9001 15.3114 14.8994Z" fill="#BDDCF3"/>
<path d="M8.69085 14.8993C8.54749 14.8992 8.41439 14.825 8.33914 14.7031C8.26371 14.581 8.25693 14.4288 8.32101 14.3006C8.62384 13.68 9.24212 13.2746 9.93217 13.2442C10.0799 13.2435 10.2169 13.3217 10.2914 13.4493C10.3659 13.5769 10.3668 13.7347 10.2936 13.8631C10.2202 13.9914 10.0841 14.0711 9.9362 14.0718C9.55904 14.1009 9.22619 14.3292 9.06325 14.6705C8.99276 14.8115 8.84849 14.9001 8.69085 14.8993Z" fill="#BDDCF3"/>
<path d="M12.8279 13.2442C12.6605 13.2442 12.5096 13.1434 12.4456 12.9888C12.3815 12.8343 12.417 12.6564 12.5353 12.5381L12.9491 12.1243C13.1113 11.9674 13.3694 11.9698 13.5291 12.1292C13.6885 12.2889 13.6909 12.5469 13.534 12.7093L13.1202 13.123C13.0428 13.2007 12.9375 13.2442 12.8279 13.2442Z" fill="#BDDCF3"/>
<path d="M11.174 13.2442C11.0643 13.2442 10.959 13.2007 10.8814 13.123L10.4678 12.7093C10.3109 12.5469 10.3131 12.2889 10.4728 12.1292C10.6324 11.9698 10.8904 11.9674 11.0528 12.1243L11.4666 12.5381C11.5848 12.6564 11.6202 12.8343 11.5563 12.9888C11.4922 13.1434 11.3413 13.2442 11.174 13.2442Z" fill="#BDDCF3"/>
<path d="M11.9995 1.6593L13.1886 3.47698L15.3095 4.02972L13.9233 5.70624L14.0451 7.86556L11.9995 7.08397L9.95385 7.86556L10.0754 5.70624L8.68945 4.02972L10.8103 3.47698L11.9995 1.6593Z" fill="#F4CD1E"/>
<path d="M8.27688 8.27933H3.06863C2.88682 8.27951 2.72607 8.16105 2.67261 7.98712C2.61915 7.81337 2.68543 7.62498 2.83611 7.523L7.1044 4.62675C7.29353 4.49841 7.55095 4.54784 7.67929 4.73697C7.80763 4.9261 7.7582 5.18352 7.56889 5.31186L4.41541 7.45178H8.27688C8.50538 7.45178 8.69066 7.63706 8.69066 7.86555C8.69066 8.09404 8.50538 8.27933 8.27688 8.27933Z" fill="#926F66"/>
<path d="M20.9326 8.27931H15.7243C15.4958 8.27931 15.3105 8.09402 15.3105 7.86553C15.3105 7.63704 15.4958 7.45176 15.7243 7.45176H19.5858L16.4321 5.31184C16.3098 5.22891 16.241 5.08683 16.2516 4.93945C16.2624 4.79188 16.3508 4.66134 16.4839 4.59671C16.6171 4.53226 16.7745 4.54361 16.8968 4.62674L21.1651 7.52298C21.3156 7.62496 21.3821 7.81335 21.3286 7.9871C21.2751 8.16103 21.1144 8.27949 20.9326 8.27931Z" fill="#926F66"/>
<path d="M1.6562 9.52046H4.96622V10.348C4.96622 10.805 4.59584 11.1756 4.13867 11.1756H2.48375C2.02677 11.1756 1.6562 10.805 1.6562 10.348V9.52046Z" fill="#6D5A61"/>
<path d="M2.48375 22.3468H4.13867C4.59584 22.3468 4.96622 22.7173 4.96622 23.1743V24.0019H1.6562V23.1743C1.6562 22.7173 2.02677 22.3468 2.48375 22.3468Z" fill="#6D5A61"/>
<path d="M2.48438 11.1755H4.13929V22.3467H2.48438V11.1755Z" fill="#926F66"/>
<path d="M19.0332 9.52045H22.343V10.348C22.343 10.805 21.9727 11.1755 21.5157 11.1755H19.8606C19.4036 11.1755 19.0332 10.805 19.0332 10.348V9.52045Z" fill="#6D5A61"/>
<path d="M19.8606 22.3467H21.5157C21.9727 22.3467 22.343 22.7173 22.343 23.1743V24.0018H19.0332V23.1743C19.0332 22.7173 19.4036 22.3467 19.8606 22.3467Z" fill="#6D5A61"/>
<path d="M19.8612 11.1756H21.5163V22.3468H19.8612V11.1756Z" fill="#926F66"/>
<path d="M9.51756 22.3468H14.4825V23.1743C14.4825 23.6313 14.1119 24.0019 13.6549 24.0019H10.3449C9.88795 24.0019 9.51756 23.6313 9.51756 23.1743V22.3468Z" fill="#919D9E"/>
<path d="M9.10294 20.6918H14.8954C15.3524 20.6918 15.723 21.0622 15.723 21.5192C15.723 21.9764 15.3524 22.3468 14.8954 22.3468H9.10294C8.64596 22.3468 8.27539 21.9764 8.27539 21.5192C8.27539 21.0622 8.64596 20.6918 9.10294 20.6918Z" fill="#A5B4B4"/>
</g>
<defs>
<clipPath id="clip0_121_146">
<rect width="24" height="24" fill="white"/>
</clipPath>
</defs>
</svg>
