<svg width="24" height="24" viewBox="0 0 24 24" fill="none" xmlns="http://www.w3.org/2000/svg">
<g clip-path="url(#clip0_121_124)">
<path d="M6.20691 10.3449L7.03455 19.0345L12 22.3449L19.0345 15.7242L17.3793 10.7585L6.20691 10.3449Z" fill="#EBECED"/>
<path d="M24 14.4124V23.1724C23.9987 23.6288 23.6288 23.9987 23.1724 24H0.827638C0.371156 23.9987 0.00128316 23.6288 1.416e-06 23.1724V14.4124C-0.000914109 13.7104 0.442201 13.0845 1.10486 12.8524L5.37927 11.3421L7.22076 13.3242C7.90759 18.0992 10.3531 19.9407 11.458 20.9008C11.501 20.9388 11.5483 20.9722 11.5986 21C11.8488 21.1366 12.1512 21.1366 12.4014 21C12.4517 20.9722 12.499 20.9388 12.542 20.9008C13.6468 19.9407 16.0924 18.0992 16.7792 13.3242L18.6207 11.3421L22.8951 12.8524C23.5578 13.0845 24.0009 13.7104 24 14.4124Z" fill="#717275"/>
<path d="M15.7238 6.91443V9.71539L13.241 10.7585C13.2533 10.5168 13.0687 10.3101 12.8272 10.2947H11.1719C10.9304 10.3101 10.7458 10.5168 10.7581 10.7585L8.27539 9.71539V6.91443H15.7238Z" fill="#F5A585"/>
<path d="M17.7931 4.57764e-05V2.48277C17.7931 5.68217 15.1994 8.27586 12 8.27586C8.8006 8.27586 6.20691 5.68217 6.20691 2.48277V4.57764e-05H17.7931Z" fill="#FEDEBB"/>
<path d="M10.7576 12L6.4493 13.6137C6.1805 13.6866 5.89321 13.6234 5.67971 13.4447C5.46639 13.2658 5.35378 12.9941 5.37832 12.7167V9.62805C5.35378 9.35083 5.46639 9.07892 5.67971 8.90021C5.89321 8.7215 6.1805 8.65833 6.4493 8.73102L10.7576 10.3449V12Z" fill="#ED634C"/>
<path d="M10.7585 11.5862H9.10345C8.87494 11.5862 8.68964 11.4009 8.68964 11.1724C8.68964 10.9438 8.87494 10.7585 9.10345 10.7585H10.7585C10.9872 10.7585 11.1724 10.9438 11.1724 11.1724C11.1724 11.4009 10.9872 11.5862 10.7585 11.5862Z" fill="#CD4F38"/>
<path d="M13.2422 12L17.5505 13.6137C17.8193 13.6866 18.1066 13.6234 18.3201 13.4447C18.5334 13.2658 18.646 12.9941 18.6215 12.7167V9.62805C18.646 9.35083 18.5334 9.07892 18.3201 8.90021C18.1066 8.7215 17.8193 8.65833 17.5505 8.73102L13.2422 10.3449V12Z" fill="#ED634C"/>
<path d="M14.897 11.5862H13.2419C13.0134 11.5862 12.8281 11.4009 12.8281 11.1724C12.8281 10.9438 13.0134 10.7585 13.2419 10.7585H14.897C15.1255 10.7585 15.3109 10.9438 15.3109 11.1724C15.3109 11.4009 15.1255 11.5862 14.897 11.5862Z" fill="#CD4F38"/>
<path d="M12.4135 21.1035V24H11.5859V21.1035C11.5857 21.0687 11.5899 21.0339 11.5983 21C11.8485 21.1366 12.1509 21.1366 12.4011 21C12.4095 21.0339 12.4137 21.0687 12.4135 21.1035Z" fill="#445C71"/>
<path d="M12.4135 14.0689C12.4135 14.2974 12.2282 14.4827 11.9997 14.4827C11.7712 14.4827 11.5859 14.2974 11.5859 14.0689C11.5859 13.8404 11.7712 13.6551 11.9997 13.6551C12.2282 13.6551 12.4135 13.8404 12.4135 14.0689Z" fill="#445C71"/>
<path d="M12.4135 15.7242C12.4135 15.9527 12.2282 16.138 11.9997 16.138C11.7712 16.138 11.5859 15.9527 11.5859 15.7242C11.5859 15.4957 11.7712 15.3104 11.9997 15.3104C12.2282 15.3104 12.4135 15.4957 12.4135 15.7242Z" fill="#445C71"/>
<path d="M12.4135 17.3793C12.4135 17.6078 12.2282 17.7931 11.9997 17.7931C11.7712 17.7931 11.5859 17.6078 11.5859 17.3793C11.5859 17.1508 11.7712 16.9655 11.9997 16.9655C12.2282 16.9655 12.4135 17.1508 12.4135 17.3793Z" fill="#445C71"/>
<path d="M12.4135 19.0345C12.4135 19.2631 12.2282 19.4484 11.9997 19.4484C11.7712 19.4484 11.5859 19.2631 11.5859 19.0345C11.5859 18.806 11.7712 18.6207 11.9997 18.6207C12.2282 18.6207 12.4135 18.806 12.4135 19.0345Z" fill="#445C71"/>
<path d="M7.03424 22.3449H2.89624C2.66772 22.3449 2.48242 22.1596 2.48242 21.9311C2.48242 21.7026 2.66772 21.5173 2.89624 21.5173H7.03424C7.26276 21.5173 7.44806 21.7026 7.44806 21.9311C7.44806 22.1596 7.26276 22.3449 7.03424 22.3449Z" fill="#445C71"/>
<path d="M17.7175 21.9311C17.7153 21.0754 17.61 20.2233 17.4038 19.3929C17.3203 19.0391 17.471 18.6714 17.7786 18.4779L19.1814 17.5457C19.4608 17.3498 19.8234 17.3172 20.1332 17.4604C20.443 17.6036 20.6532 17.9006 20.6851 18.2404C20.7123 19.407 20.6256 20.9441 20.0951 21.9311H17.7175Z" fill="#EBECED"/>
<path d="M11.1716 9.93109H12.8269C13.0554 9.93109 13.2407 10.1162 13.2407 10.3449V12C13.2407 12.2285 13.0554 12.4138 12.8269 12.4138H11.1716C10.9431 12.4138 10.7578 12.2285 10.7578 12V10.3449C10.7578 10.1162 10.9431 9.93109 11.1716 9.93109Z" fill="#CD4F38"/>
<path d="M21.1026 22.3449H16.9646C16.7361 22.3449 16.5508 22.1596 16.5508 21.9311C16.5508 21.7026 16.7361 21.5173 16.9646 21.5173H21.1026C21.3311 21.5173 21.5164 21.7026 21.5164 21.9311C21.5164 22.1596 21.3311 22.3449 21.1026 22.3449Z" fill="#445C71"/>
</g>
<defs>
<clipPath id="clip0_121_124">
<rect width="24" height="24" fill="white"/>
</clipPath>
</defs>
</svg>
