<svg width="24" height="24" viewBox="0 0 24 24" fill="none" xmlns="http://www.w3.org/2000/svg">
<g clip-path="url(#clip0_121_108)">
<path d="M3.31472 12.8272C1.91047 12.8246 0.657561 13.7089 0.189414 15.0329C-0.278733 16.357 0.140001 17.8322 1.23369 18.7129C2.32755 19.5937 3.85809 19.688 5.05188 18.9482C4.31196 20.1418 4.40639 21.6726 5.28705 22.7662C6.16789 23.8601 7.64316 24.2787 8.96707 23.8105C10.291 23.3426 11.1753 22.0896 11.1727 20.6852V14.4814C11.1727 13.5678 10.4321 12.8272 9.51849 12.8272H3.31472Z" fill="#23B972"/>
<path d="M1.6597 16.5495C1.4313 16.5495 1.24609 16.3643 1.24609 16.1359C1.24609 14.9937 2.17196 14.068 3.31396 14.068C3.54236 14.068 3.72756 14.253 3.72756 14.4814C3.72756 14.7098 3.54236 14.8951 3.31396 14.8951C2.62876 14.8951 2.07331 15.4507 2.07331 16.1359C2.07331 16.3643 1.8881 16.5495 1.6597 16.5495Z" fill="#81CB97"/>
<path d="M9.51808 14.8951H5.38218C5.15378 14.8951 4.96875 14.7098 4.96875 14.4814C4.96875 14.253 5.15378 14.068 5.38218 14.068H9.51808C9.74648 14.068 9.93169 14.253 9.93169 14.4814C9.93169 14.7098 9.74648 14.8951 9.51808 14.8951Z" fill="#81CB97"/>
<path d="M20.6862 12.8272C22.0906 12.8246 23.3435 13.7089 23.8115 15.0329C24.2796 16.357 23.8611 17.8322 22.7672 18.7129C21.6735 19.5937 20.1428 19.688 18.9492 18.9482C19.6889 20.1418 19.5947 21.6726 18.7138 22.7662C17.8332 23.8601 16.3579 24.2787 15.0338 23.8105C13.7099 23.3426 12.8256 22.0896 12.8281 20.6852V14.4814C12.8281 13.5678 13.5688 12.8272 14.4824 12.8272H20.6862Z" fill="#5DC382"/>
<path d="M14.4818 16.9631C14.2534 16.9631 14.0684 16.7779 14.0684 16.5495V14.8951C14.0684 14.4383 14.4386 14.068 14.8954 14.068H16.5498C16.7782 14.068 16.9634 14.253 16.9634 14.4814C16.9634 14.7098 16.7782 14.8951 16.5498 14.8951H14.8954V16.5495C14.8954 16.7779 14.7102 16.9631 14.4818 16.9631Z" fill="#81CB97"/>
<path d="M3.31474 11.1728C1.91048 11.1753 0.657576 10.291 0.189429 8.96709C-0.278717 7.64318 0.140016 6.16791 1.2337 5.28707C2.32757 4.40641 3.8581 4.31198 5.0519 5.0519C4.31198 3.8581 4.40641 2.32757 5.28707 1.2337C6.16791 0.140016 7.64318 -0.278717 8.96709 0.189429C10.291 0.657576 11.1753 1.91048 11.1728 3.31474V9.51851C11.1728 10.4321 10.4321 11.1728 9.51851 11.1728H3.31474Z" fill="#5DC382"/>
<path d="M1.69305 7.93983C1.66724 7.93983 1.64144 7.93727 1.61618 7.93233C1.39309 7.88914 1.2465 7.6741 1.28822 7.45064C1.42237 6.78795 1.87258 6.23305 2.49336 5.96531C3.11414 5.69756 3.82679 5.75081 4.40072 6.10806C4.59051 6.23012 4.64742 6.48177 4.52865 6.67375C4.40969 6.86554 4.15914 6.92667 3.96533 6.81119C3.62328 6.59725 3.19814 6.56376 2.82681 6.72151C2.45529 6.87927 2.18444 7.20833 2.1008 7.60327C2.06383 7.79909 1.89235 7.94056 1.69305 7.93983Z" fill="#81CB97"/>
<path d="M6.25395 3.33705C6.22338 3.33705 6.19282 3.33357 6.16299 3.3268C6.05556 3.30264 5.96222 3.23675 5.90348 3.1436C5.84473 3.05045 5.8257 2.93771 5.8504 2.83047C6.04037 2.05028 6.66335 1.44963 7.45012 1.28822C7.58628 1.2615 7.72482 1.24759 7.86373 1.24686C8.09213 1.24686 8.27715 1.43207 8.27715 1.66047C8.27715 1.88887 8.09213 2.07407 7.86373 2.07407C7.77588 2.07444 7.6884 2.08286 7.6022 2.09915C7.13863 2.19907 6.77206 2.55393 6.65731 3.01403C6.61485 3.20271 6.44739 3.33686 6.25395 3.33705Z" fill="#81CB97"/>
<path d="M20.6862 11.1727C22.0906 11.1753 23.3435 10.291 23.8115 8.96706C24.2796 7.64314 23.8611 6.16788 22.7672 5.28704C21.6735 4.40638 20.1428 4.31194 18.9492 5.05187C19.6889 3.85807 19.5947 2.32754 18.7138 1.23367C17.8332 0.139985 16.3579 -0.278748 15.0338 0.189399C13.7099 0.657546 12.8256 1.91045 12.8281 3.31471V9.51848C12.8281 10.4321 13.5688 11.1727 14.4824 11.1727H20.6862Z" fill="#23B972"/>
<path d="M14.4818 6.6234C14.2534 6.6234 14.0684 6.43819 14.0684 6.20979V4.96915C14.0684 4.74057 14.2534 4.55554 14.4818 4.55554C14.7102 4.55554 14.8954 4.74057 14.8954 4.96915V6.20979C14.8954 6.43819 14.7102 6.6234 14.4818 6.6234Z" fill="#81CB97"/>
<path d="M14.4818 3.72833C14.2534 3.72833 14.0684 3.54312 14.0684 3.31472C14.0696 2.17327 14.9946 1.24814 16.1362 1.24686C16.3646 1.24686 16.5498 1.43207 16.5498 1.66047C16.5498 1.88887 16.3646 2.07407 16.1362 2.07407C15.451 2.07407 14.8954 2.62952 14.8954 3.31472C14.8954 3.54312 14.7102 3.72833 14.4818 3.72833Z" fill="#81CB97"/>
</g>
<defs>
<clipPath id="clip0_121_108">
<rect width="24" height="24" fill="white"/>
</clipPath>
</defs>
</svg>
