<svg width="24" height="24" viewBox="0 0 24 24" fill="none" xmlns="http://www.w3.org/2000/svg">
<g clip-path="url(#clip0_121_170)">
<path d="M23.6457 10.2869L19.9297 7.60967C19.9217 7.60179 19.9116 7.59612 19.9008 7.593C19.7606 7.49779 19.5945 7.44725 19.4249 7.44835H4.56977C4.38886 7.44835 4.21235 7.50475 4.06495 7.60967L0.349006 10.2869C0.0688551 10.487 -0.0595018 10.8389 0.0263746 11.1723C0.0573194 11.3102 0.124519 11.4373 0.220833 11.5408L11.3643 23.7228C11.517 23.8921 11.7321 23.9923 11.9601 24H11.9974C12.238 24.0013 12.4682 23.9006 12.6304 23.7228L23.7739 11.5408C23.8304 11.4827 23.8766 11.4155 23.9105 11.3421C23.9225 11.3197 23.9322 11.2961 23.9394 11.2718C24.0764 10.9147 23.9557 10.5104 23.6457 10.2869Z" fill="#AED3DB"/>
<path d="M11.9817 23.9379L11.9611 24C11.7331 23.9923 11.5179 23.8921 11.3652 23.7228L0.221802 11.5408C0.125488 11.4373 0.0582885 11.3102 0.0273438 11.1724H8.27423L11.9817 23.9379Z" fill="#5496CE"/>
<path d="M8.27326 11.1724H0.0263746C-0.0595018 10.8389 0.0688551 10.487 0.349006 10.2869L4.06495 7.60968L8.27326 11.1724Z" fill="#BDDCF3"/>
<path d="M11.9969 7.44836L8.27276 11.1724L4.06445 7.60968C4.21185 7.50476 4.38837 7.44836 4.56927 7.44836H11.9969Z" fill="#336A93"/>
<path d="M19.9014 7.59302L19.8932 7.60968L15.6849 11.1724L11.998 7.44818L19.4255 7.44836C19.5951 7.44727 19.7612 7.4978 19.9014 7.59302Z" fill="#336A93"/>
<path d="M23.9387 11.2718C23.9316 11.2961 23.9219 11.3198 23.9098 11.3421L23.5829 11.1724H15.6836L19.8919 7.60968L19.9001 7.59302C19.9109 7.59613 19.921 7.60181 19.9291 7.60968L23.645 10.2869C23.955 10.5104 24.0757 10.9147 23.9387 11.2718Z" fill="#BDDCF3"/>
<path d="M23.9101 11.3421C23.8763 11.4155 23.8301 11.4827 23.7736 11.5408L12.6301 23.7228C12.4679 23.9006 12.2377 24.0013 11.9971 24L11.9805 23.9379L15.684 11.1724H23.5833L23.9101 11.3421Z" fill="#5496CE"/>
<path d="M14.7542 4.28229L11.9972 1.76807L9.23999 4.28229C8.90564 4.56189 8.4259 4.58349 8.06775 4.33539L4.54883 1.76807V5.12237C4.59662 5.53363 4.96411 5.83154 5.37646 5.79309H18.6177C19.0301 5.83154 19.3978 5.53363 19.4454 5.12237V1.76807L15.9281 4.33374C15.5699 4.58331 15.0891 4.56225 14.7542 4.28229Z" fill="#F4CD1E"/>
<path d="M5.37598 0.827636C5.37598 1.28467 5.00537 1.65509 4.54834 1.65509C4.09131 1.65509 3.7207 1.28467 3.7207 0.827636C3.7207 0.370605 4.09131 0 4.54834 0C5.00537 0 5.37598 0.370605 5.37598 0.827636Z" fill="#CD4F38"/>
<path d="M12.825 0.827636C12.825 1.28467 12.4546 1.65509 11.9976 1.65509C11.5403 1.65509 11.1699 1.28467 11.1699 0.827636C11.1699 0.370605 11.5403 0 11.9976 0C12.4546 0 12.825 0.370605 12.825 0.827636Z" fill="#CD4F38"/>
<path d="M20.2725 0.827636C20.2725 1.28467 19.9019 1.65509 19.4449 1.65509C18.9878 1.65509 18.6172 1.28467 18.6172 0.827636C18.6172 0.370605 18.9878 0 19.4449 0C19.9019 0 20.2725 0.370605 20.2725 0.827636Z" fill="#CD4F38"/>
<path d="M15.6843 11.1724L11.9808 23.9379L8.27325 11.1724H15.6843Z" fill="#336A93"/>
<path d="M15.6843 11.1724H8.27325L11.9974 7.44836L15.6843 11.1724Z" fill="#5496CE"/>
</g>
<defs>
<clipPath id="clip0_121_170">
<rect width="24" height="24" fill="white"/>
</clipPath>
</defs>
</svg>
